<svg width="340" height="393" viewBox="0 0 340 393" fill="none" xmlns="http://www.w3.org/2000/svg">
<path fill-rule="evenodd" clip-rule="evenodd" d="M89.9408 88.1268C89.5412 94.693 89.1417 101.316 88.7422 107.883C91.3106 107.14 107.805 102.287 106.778 107.198C106.036 110.738 101.413 114.563 99.0729 117.018C96.904 119.302 94.6781 121.472 92.395 123.642C96.6186 122.043 100.842 120.501 105.123 119.074C108.376 117.989 111.63 116.961 114.94 116.105C116.196 115.819 119.506 114.563 120.647 115.42C123.73 117.646 107.121 133.862 104.838 136.146C108.055 134.638 111.351 133.304 114.712 132.149C117.109 131.293 124.586 128.095 126.755 130.836C129.038 133.748 123.387 140.543 121.789 142.655C119.547 145.726 117.126 148.662 114.54 151.449C125.214 161.041 137.713 169.549 151.012 174.859C160.772 178.741 170.36 179.712 180.691 177.599C191.307 175.43 201.409 171.204 211.112 166.408C216.812 163.608 222.357 160.501 227.721 157.101C225.552 154.418 223.384 151.677 221.329 148.936C218.361 144.996 214.708 140.657 213.053 135.918C211.398 131.293 217.619 132.206 220.587 132.435C224.89 132.832 229.161 133.519 233.372 134.49C230.404 132.435 227.436 130.265 224.582 128.038C220.815 125.126 215.85 121.872 213.395 117.704C211.226 114.049 215.964 114.963 218.133 115.42C223.326 116.562 228.406 118.503 233.372 120.444C237.025 121.815 240.62 123.299 244.216 124.841C241.99 122.899 239.821 120.901 237.767 118.788C234.97 115.991 231.26 112.508 230.004 108.625C227.493 100.688 244.502 106.684 247.412 107.883C246.899 99.6606 246.328 91.4956 245.814 83.2734C223.269 89.2687 200.705 95.2831 178.123 101.316C175.668 101.945 172.643 103.372 170.075 103.429C167.792 103.486 164.995 102.458 162.769 102.059L121.96 94.2363C111.23 92.1807 100.557 90.1823 89.9408 88.1268Z" fill="#FFE7D1"/>
<path fill-rule="evenodd" clip-rule="evenodd" d="M332.339 370.034C329.809 371.406 327.127 372.479 324.349 373.231C322.75 373.631 320.125 374.944 318.755 373.745C318.07 373.174 317.956 371.861 317.557 371.119C316.862 369.957 316.079 368.85 315.216 367.807C313.219 365.238 311.107 362.725 308.881 360.327C307.854 359.185 305.913 356.502 304.087 356.673C301.804 356.901 301.861 360.042 302.432 361.697C304.258 366.836 309.794 371.347 313.39 375.23C312.477 376.657 307.454 376.486 306.027 376.143C303.915 375.629 303.687 374.088 302.717 372.375C300.434 368.321 295.811 366.037 291.987 363.639C290.617 362.782 287.649 360.327 285.823 360.955C284.11 361.526 284.167 363.696 284.738 365.123C285.537 367.293 287.934 368.778 289.647 370.148C291.961 371.941 294.085 373.97 295.982 376.2C293.185 376.429 290.446 376.828 287.649 377.057C284.282 377.342 281.485 375.515 278.403 374.43C275.549 373.46 272.695 372.66 269.841 371.518C266.702 370.262 263.335 369.805 260.196 368.721C247.696 364.381 235.368 358.957 223.325 353.475C217.56 350.849 211.967 348.279 205.917 346.224C201.522 344.739 194.673 341.77 193.645 336.574C193.075 333.834 195.129 330.864 195.415 328.124C195.772 324.803 195.462 321.445 194.502 318.246C193.645 315.505 192.219 312.993 191.077 310.366C189.764 307.283 190.963 307.34 193.531 306.997C196.613 306.598 200.209 304.828 203.063 303.743C206.418 302.374 209.646 300.712 212.709 298.775C215.415 297.019 217.889 294.928 220.071 292.552C222.297 290.154 223.724 287.299 225.893 284.843C233.827 294.607 241.418 304.542 249.865 313.906C253.815 318.22 258.259 322.053 263.106 325.326C265.161 326.753 267.216 328.352 269.442 329.437C272.239 330.807 275.378 331.664 278.232 332.977C289.199 337.749 299.838 343.243 310.08 349.421C315.045 352.448 319.212 355.931 323.607 359.756C324.976 360.955 336.163 367.864 332.339 370.034ZM203.063 289.868C201.294 290.667 199.581 291.752 197.698 292.266C198.212 289.012 201.294 284.044 205.232 284.558C206.716 284.786 207.857 285.928 207.229 287.527C206.545 288.954 204.319 289.297 203.063 289.868ZM79.0377 200.909C77.04 202.051 75.1565 202.679 73.9579 200.281C74.8141 200.11 78.8093 199.539 79.0377 200.909ZM75.6702 194.115C74.1292 193.658 75.3848 193.144 75.8985 192.573C76.6013 191.756 77.3645 190.992 78.1815 190.289C80.3504 189.147 81.9485 193.372 82.9759 194.743C80.5787 194.571 78.0674 194.857 75.6702 194.115ZM92.3933 208.732C89.4254 209.246 89.7679 205.534 89.825 203.65C90.4528 204.449 94.6764 208.332 92.3933 208.732ZM102.153 202.337C98.5575 202.965 96.1603 196.684 96.7882 194C97.3589 191.602 100.156 190.232 102.382 189.889C104.55 189.547 107.518 190.004 108.203 192.516C108.774 194.686 104.608 201.937 102.153 202.337ZM187.538 296.434C184.97 297.234 182.402 297.348 179.776 298.09C176.808 299.004 174.069 298.89 171.101 299.518C169.902 299.746 166.649 301.516 165.45 301.116C164.309 300.717 162.596 297.12 161.911 296.149C167.162 293.979 171.614 291.181 175.096 286.556C177.836 282.902 180.803 277.421 179.034 272.739C177.094 267.429 170.359 266.287 165.907 268.513C163.736 269.542 161.719 270.868 159.914 272.453C157.916 274.28 157.117 276.279 155.861 278.506C154.549 280.789 153.635 279.533 152.323 277.592C151.181 275.936 151.352 274.28 149.983 272.624C149.298 271.768 148.156 270.969 147.814 269.884C147.585 269.199 148.099 268 147.643 267.429C147.015 266.686 146.273 267.543 145.702 266.915C145.302 266.401 145.417 265.316 145.074 264.688C144.719 264.352 144.338 264.047 143.933 263.774C143.419 263.546 143.305 263.203 143.647 262.804C143.248 262.061 143.647 261.776 142.734 260.862C141.381 259.525 140.193 258.029 139.195 256.409C138.739 255.609 138.796 254.467 138.225 253.839C137.483 252.926 136.227 253.04 135.542 251.898C134.972 250.87 135.371 249.1 134.401 248.186C133.887 248.015 133.374 247.901 132.917 247.787C132.548 247.438 132.307 246.976 132.232 246.474C131.718 245.674 131.604 244.704 130.919 243.847C129.664 242.191 127.951 240.707 126.81 238.937C125.611 237.109 126.239 236.824 128.294 236.139C130.119 235.639 131.881 234.93 133.545 234.026C141.478 229.401 149.069 217.125 136.399 213.357C131.718 211.986 127.837 208.218 122.643 209.702C120.368 210.4 118.293 211.634 116.593 213.3C115.452 214.442 114.367 217.411 112.941 217.982C110.372 219.009 111.457 216.44 110.715 215.241C110.372 214.67 108.945 214.042 108.432 213.528C107.802 212.903 107.264 212.192 106.833 211.415C106.219 210.206 105.409 209.106 104.436 208.161C104.037 207.761 101.868 205.534 103.808 205.82C103.009 203.479 104.151 203.079 105.749 201.366C107.575 199.311 109.516 196.513 109.516 193.658C109.516 188.176 103.066 185.721 99.0141 188.976C98.2151 189.661 93.3066 195.999 94.2768 191.945C94.7905 189.775 99.8132 184.008 102.153 185.493C99.5278 181.724 93.5919 190.917 92.2221 192.801C91.0235 190.632 90.9665 188.919 88.9688 187.206C87.3707 189.775 88.2268 186.977 87.8844 186.406C87.1424 185.15 87.5419 186.578 87.1424 186.121C86.6287 185.55 85.8297 185.15 85.2589 184.408C84.3457 185.664 84.6881 184.294 84.4028 183.837C83.7179 182.752 84.0032 182.067 82.8617 181.096C82.0056 180.411 80.3504 179.326 79.266 179.212C77.9532 179.098 77.6108 179.612 76.298 179.212C74.6428 178.755 72.474 178.013 73.3301 180.868C73.9009 182.923 76.3551 184.065 76.8688 186.178C77.3825 188.291 75.3277 190.403 74.3004 192.116C72.9876 194.343 71.9603 194.172 69.6202 194.629C68.1362 194.971 66.1386 195.656 67.3942 197.426C68.3074 198.74 70.4763 198.454 71.6749 199.196C73.3872 200.281 73.3301 202.965 75.499 203.422C77.8961 203.936 79.266 201.252 81.2636 200.624C82.6905 200.167 87.1424 200.224 88.2839 201.309C89.825 202.794 88.5122 205.591 88.8547 207.418C89.4254 210.102 91.2518 210.273 93.5919 210.388C96.4457 210.502 97.416 213.242 98.957 215.412C102.553 220.494 105.635 225.918 109.345 230.943C110.943 233.17 113.34 235.111 114.653 237.566C116.308 240.535 114.025 242.248 112.027 244.418C109.459 247.216 107.518 250.356 105.292 253.44C103.295 256.123 100.841 255.495 97.7014 255.495C98.3863 254.011 99.2424 253.154 101.012 253.325C99.1853 251.098 97.7585 253.668 96.5599 255.038C94.8476 257.094 92.6217 257.551 90.4528 258.921C89.6537 259.378 85.4301 262.461 86.7429 263.489C86.9141 263.603 93.8773 259.035 94.6764 258.578C94.6764 260.291 94.2768 262.061 94.5622 263.717C94.7335 264.973 95.5896 266.229 95.4184 267.543C95.0759 269.998 91.9367 271.882 90.5669 273.766C89.5396 275.194 89.825 276.336 89.2542 277.82C88.7976 279.191 89.0259 278.791 87.8844 279.248C85.4872 280.104 81.4919 279.648 79.323 278.391C77.9532 277.592 76.9259 276.393 75.8414 275.308C75.0424 274.509 72.9306 273.081 72.7023 271.939C72.3027 269.998 76.1839 266.344 76.9829 264.345C79.1518 258.635 75.4419 254.182 69.6202 253.896C71.3895 252.526 73.6155 253.554 75.499 254.068C72.3027 249.614 66.7664 253.268 64.0268 256.294C62.1433 251.555 61.2871 246.588 60.1456 241.677C59.3466 238.309 56.4357 232.37 57.7485 228.887C58.3763 227.232 60.2027 226.261 61.4584 225.119C62.8615 223.776 64.0889 222.26 65.1112 220.608C67.5655 216.783 68.9353 211.929 65.6249 208.161L68.707 207.647C67.0518 206.105 64.4263 206.848 62.2574 206.391C60.8876 206.105 56.9494 206.277 56.0362 205.534C54.9518 204.621 55.6367 200.338 55.6937 199.082C55.8079 196.113 56.0362 193.258 56.3786 190.346C56.664 187.548 56.6069 184.579 57.1777 181.839C57.6343 179.612 59.1183 178.927 60.8305 177.67C64.94 174.53 68.3074 170.762 66.8806 165.394C67.3942 165.337 67.8508 165.223 68.3645 165.166C66.7664 164.024 64.6546 164.424 62.8853 163.796C64.5405 159.171 68.1362 151.063 74.0721 150.606C74.3004 152.661 74.1292 155.117 75.556 156.83C77.1542 158.771 79.9509 158.999 82.0627 157.914C84.1047 156.843 85.7463 155.141 86.7429 153.061C87.3707 151.748 87.2565 149.521 88.2839 148.436C89.7108 147.009 99.5849 147.865 99.2995 150.263C99.1283 151.634 96.5028 154.032 95.7608 155.231C94.3554 157.47 93.3691 159.947 92.85 162.539C92.108 166.479 92.5075 171.732 96.5599 173.788C101.126 176.129 106.662 173.16 110.429 170.533C112.495 169.086 114.476 167.523 116.365 165.851C117.404 164.993 118.377 164.058 119.276 163.053C119.904 162.311 120.475 161.112 121.274 160.598C123.157 159.285 125.041 161.512 126.639 162.654C129.211 164.487 131.878 166.183 134.629 167.735C140.337 170.819 145.531 174.873 150.553 178.927C155.633 182.981 160.827 187.206 164.936 192.287C162.482 193.829 162.882 194.229 161.797 196.912C160.998 198.854 159.914 200.51 159.8 202.622C159.676 204.385 160.191 206.134 161.249 207.549C162.307 208.964 163.839 209.951 165.564 210.33C167.533 210.743 169.584 210.482 171.386 209.588C172.813 208.96 174.297 207.361 175.781 206.962C178.578 206.219 180.861 211.587 182.459 213.471C189.479 221.807 196.899 229.801 203.52 238.537C204.262 239.508 206.43 241.392 206.602 242.648C206.83 244.475 203.976 246.245 202.778 247.273C202.15 247.844 195.529 254.068 197.755 255.038C198.383 255.324 200.266 251.498 200.723 251.156C202.492 249.899 201.122 252.355 201.065 253.554C200.78 256.58 202.892 258.236 205.803 257.836C208.942 257.436 211.681 254.981 213.622 252.64C216.019 255.438 219.786 259.663 220.528 263.432C220.985 265.83 218.93 271.654 222.754 272.168C223.325 272.225 225.494 270.683 225.893 271.54C226.236 272.282 223.896 273.595 223.61 273.824C222.343 274.853 221.194 276.022 220.186 277.307C218.816 278.791 216.989 280.104 215.505 281.532C213.907 283.073 210.768 287.184 208.656 285.186C207.572 284.158 207.857 282.845 206.202 282.274C204.661 281.76 202.721 282.445 201.294 283.016C199.695 283.701 194.387 286.1 193.76 288.155C192.961 290.953 197.355 287.584 198.097 287.127C197.184 289.411 196.728 292.666 194.445 293.979C192.333 295.178 189.593 295.806 187.538 296.434ZM157.402 279.362C158.886 274.509 167.79 265.887 173.441 268.57C166.877 269.941 161.683 274.395 157.402 279.362ZM160.77 293.237C158.601 292.038 158.715 288.441 157.916 286.385C157.46 285.186 156.603 284.33 156.832 283.016C157.117 281.475 159.115 279.762 160.142 278.62C163.452 275.08 169.274 270.283 174.582 271.083C181.374 272.111 176.751 281.246 174.468 284.33C172.585 287.013 164.994 295.578 160.77 293.237ZM144.903 287.299C137.54 286.785 130.234 286.157 123.043 284.786C120.475 284.33 118.306 284.387 119.79 281.418C120.246 280.447 123.214 274.337 123.842 274.509C124.242 274.623 124.127 278.791 124.242 279.305C124.755 281.475 126.239 283.473 128.693 283.359C132.689 283.131 135.314 277.935 137.426 275.137C139.138 277.421 140.337 279.933 142.049 282.16C142.848 283.245 145.702 285.757 144.903 287.299ZM101.925 258.521C100.669 261.319 98.2151 264.06 96.5028 266.572C95.5325 264.517 94.8476 259.777 97.1306 258.236C98.0438 257.665 102.724 256.694 101.925 258.521ZM127.381 266.915C127.723 265.83 128.123 264.745 128.522 263.717C129.207 265.944 129.607 266.001 127.381 266.915ZM133.659 269.199C134.572 270.683 136.056 272.168 135.828 274.109C135.657 275.536 134.344 277.021 133.431 277.992C131.89 279.648 128.522 282.845 126.296 280.618C124.413 278.791 125.098 273.709 125.954 271.654C127.095 268.742 131.547 265.601 133.659 269.199ZM129.264 266.115C129.778 265.887 128.693 262.632 129.721 262.29C130.577 264.288 131.433 264.802 129.264 266.115ZM115.281 221.807C114.938 220.608 114.196 220.665 114.482 219.124C114.653 218.153 115.452 217.068 116.023 216.326C117.242 214.772 118.755 213.472 120.475 212.5C124.013 210.445 128.922 209.588 132.118 212.786C129.15 213.242 120.018 216.212 119.961 220.266C123.271 219.637 125.897 216.326 129.207 215.241C131.946 214.393 134.883 214.433 137.597 215.355C145.017 217.867 141.935 224.262 137.768 228.431C135.268 230.87 132.297 232.774 129.036 234.026C127.794 234.562 126.413 234.683 125.098 234.369C124.812 234.312 124.47 233.798 124.184 233.684C123.328 233.398 123.614 234.312 122.929 233.912C122.358 233.569 121.045 231.171 120.646 230.543C120.018 229.458 119.675 228.431 118.934 227.46C118.134 226.489 117.735 225.176 117.05 224.262C116.708 223.863 115.737 223.863 115.452 223.463C114.938 222.892 115.452 222.435 115.281 221.807ZM103.866 269.655C105.578 266.743 108.432 264.231 110.658 261.662C110.829 265.887 107.804 268.799 103.866 269.655ZM106.149 271.026C109.63 269.827 111.571 266.858 111.913 263.317C112.37 258.807 115.167 256.466 116.879 252.412C117.507 250.87 118.306 245.731 120.817 247.216C121.673 247.73 122.187 249.614 122.643 250.47C123.728 252.526 124.984 254.524 126.125 256.58C127.095 258.236 128.465 259.892 128.066 261.89C127.723 263.603 126.525 265.487 125.84 267.086C124.242 270.912 122.073 274.509 120.303 278.277C119.561 279.819 118.762 283.416 116.536 283.359C114.824 283.359 114.995 281.475 113.854 280.789C112.427 279.99 110.772 281.532 109.573 282.16C110.19 281.042 111.131 280.138 112.273 279.568C113.414 278.997 114.702 278.786 115.966 278.962C112.769 275.765 110.6 280.104 107.861 281.018C105.235 281.931 100.612 277.649 98.4434 276.45C99.2995 275.023 100.041 273.31 101.468 272.339C102.952 271.425 104.665 271.54 106.149 271.026ZM77.782 300.203C78.1815 298.376 79.266 297.291 79.9509 295.635C80.7499 297.633 78.8664 298.832 77.782 300.203ZM133.202 311.508C133.031 317.675 132.518 323.899 132.346 330.065C132.289 332.92 131.776 335.661 131.433 338.459C131.148 340.857 131.319 343.198 129.778 345.253C127.381 348.451 122.815 349.421 119.219 350.563C116.593 351.42 113.911 352.219 111.342 353.19C109.002 354.046 107.119 355.417 104.893 356.444C102.895 357.358 100.783 357.929 98.7858 358.9C96.7311 359.927 95.133 361.184 93.0212 362.097C90.5098 363.182 88.4551 365.123 86.2292 366.665C84.2886 368.035 82.1768 369.063 80.4645 370.776C78.8664 372.375 76.8688 373.06 75.0994 374.487C73.2127 375.879 71.2073 377.102 69.1065 378.142C64.8258 380.54 59.0041 384.708 53.8102 382.367C55.2942 380.483 58.3192 378.656 58.5475 376.029C58.8329 372.66 55.865 373.859 54.2098 374.944C51.6414 376.6 50.1574 378.541 48.2168 380.768C45.9338 383.338 43.023 381.625 40.1692 380.882C42.1097 379.169 43.9932 377.399 45.9338 375.629C47.5319 374.145 50.0433 372.546 51.0135 370.548C51.6984 369.12 51.6984 367.122 49.9862 366.322C48.1027 365.466 45.9338 367.236 44.5069 368.321C40.7399 371.119 38.2857 374.716 35.8314 378.598C34.5187 380.654 33.8909 380.54 31.4937 380.083C28.9253 379.626 26.3569 379.169 23.7885 378.884C27.213 375.401 31.0371 371.575 33.7196 367.464C34.5758 366.151 35.7173 362.611 33.0918 362.326C32.0074 362.211 29.7814 364.438 28.9824 365.066C25.1596 367.7 21.8678 371.032 19.2795 374.887C18.4804 376.143 18.1951 377.571 16.654 377.685C14.5993 377.799 10.7752 375.858 8.83467 375.287C12.6017 370.548 16.3686 365.694 20.7635 361.526C24.8158 357.643 28.8682 354.846 33.6055 351.877C38.6258 348.621 43.4653 345.095 48.1027 341.313C52.5546 337.716 57.2348 334.347 61.3442 330.351C69.5882 322.264 76.8316 313.215 82.9188 303.4C84.3449 301.135 85.6407 298.79 86.7999 296.377C87.8844 294.093 88.3981 291.353 89.825 289.297C90.3386 288.555 91.0235 288.041 91.4801 287.299C91.8797 286.613 91.7655 285.757 92.3933 285.129C93.8773 283.702 96.6169 284.558 98.0438 285.586C100.27 287.184 102.096 289.183 104.608 290.553C107.113 291.895 109.779 292.912 112.541 293.579C118.991 295.121 125.383 296.434 131.947 297.405C131.262 299.917 132.917 300.317 133.488 302.544C134.116 305.285 133.259 308.71 133.202 311.508ZM71.1612 269.712C69.6773 267.543 68.4216 265.259 66.9376 263.089C66.0815 261.776 64.9971 260.348 65.739 258.693C66.9947 255.952 71.4466 255.438 73.8438 256.637C79.323 259.378 74.2433 267.143 71.1612 269.712ZM56.664 220.037C56.1503 215.812 57.8055 212.786 61.6296 210.559C64.3692 208.96 66.5952 211.13 66.1956 214.042C65.6249 218.438 60.9447 223.349 57.3489 225.633C57.0636 223.806 56.8923 221.921 56.664 220.037ZM56.0933 207.932C57.2348 207.019 60.2598 208.161 61.5725 208.275C59.7461 209.874 57.9768 211.415 56.1503 213.014C56.0362 211.872 55.0088 208.732 56.0933 207.932ZM62.1433 166.936C71.2754 165.737 60.7735 175.558 58.0909 177.099C58.5475 174.987 59.632 167.279 62.1433 166.936ZM86.4575 149.749C85.2589 154.774 75.7273 160.255 75.6131 152.033C75.556 148.95 77.3254 149.236 79.8367 148.95C81.2065 148.779 87.1424 146.895 86.4575 149.749ZM53.5249 157.572C52.4404 160.37 51.5843 163.282 50.5569 166.079C50.1445 167.224 49.5037 168.273 48.6734 169.163C47.9315 169.962 47.0753 170.191 47.1324 171.504C47.9938 171.259 48.7921 170.83 49.4725 170.248C49.3013 172.817 48.3881 175.615 47.9315 178.184C47.3791 181.263 46.998 184.37 46.7899 187.491C46.4475 194.286 46.4475 201.081 46.5616 207.932C46.6187 211.415 46.6758 214.898 46.847 218.324C46.9612 220.037 47.0182 221.807 47.2465 223.52C47.3607 224.205 47.8173 225.69 47.5319 226.318C46.3333 228.887 40.9112 221.864 38.5711 222.892C38.9135 220.951 38.1145 221.35 36.8588 220.437C36.231 219.98 35.8314 219.181 35.1465 218.781C34.9654 218.562 34.754 218.37 34.5187 218.21C34.2333 217.867 33.9479 217.867 33.6626 218.324C31.0371 216.725 30.3522 213.357 28.9253 211.13C28.1833 209.988 27.4984 209.759 27.3842 208.161C27.2701 206.733 27.4984 205.306 27.4413 203.936C27.4366 202.298 27.2257 200.667 26.8135 199.082C26.2998 197.312 25.5578 197.426 24.188 196.513C24.5804 196.33 24.8871 196.003 25.0441 195.599C24.5875 195.656 23.2748 196.227 22.9323 195.828C22.2474 195.028 23.8456 194.971 24.2451 194.629C22.5328 193.829 22.8753 193.201 23.5031 191.831C23.6743 191.431 23.8456 190.803 24.0168 190.517C24.3592 189.775 24.5305 190.232 24.6446 189.318C24.7588 188.462 23.9597 186.749 23.7314 185.778C23.2835 184.297 23.2051 182.729 23.5031 181.21C23.7885 179.897 24.5305 178.698 24.5875 177.328C24.5875 176.928 24.0168 176.814 24.0168 176.471C24.0168 175.957 24.5305 175.672 24.6446 175.215C24.9871 173.959 24.8158 172.589 25.3866 171.39C26.0406 170.18 26.8049 169.033 27.6696 167.964C28.1833 167.336 29.439 166.593 29.5531 165.68C29.6673 165.109 28.7541 165.166 28.8111 164.766C28.8682 164.195 29.3819 163.967 29.496 163.567C29.8385 162.368 29.9526 161.226 30.9229 160.313C32.1215 159.171 32.6352 159.627 32.6923 157.743C32.6923 156.83 31.9503 156.658 32.3498 155.631C32.5781 155.06 33.206 154.717 33.6055 154.317C34.7434 153.193 35.7055 151.903 36.4593 150.492C37.2012 149.178 38.4569 148.379 39.1989 147.237C40.2262 145.753 38.6852 145.01 40.7399 144.554C40.4546 143.64 40.1121 142.898 40.9112 142.098C41.3678 141.584 42.6234 141.927 43.08 141.356C43.5937 140.671 42.8517 139.129 43.5937 138.73C44.2215 138.387 45.0777 139.472 46.048 138.901C46.7899 138.501 47.8744 136.274 47.6461 135.475C49.5296 136.503 49.073 135.818 49.9291 134.447C50.1574 134.162 50.7282 134.105 50.8994 133.762C51.2418 133.134 51.1848 132.506 51.6414 132.049C52.4975 131.25 53.8102 131.421 54.7235 130.85C55.4654 130.336 55.4084 129.822 56.0362 129.365C56.5499 128.966 57.406 128.909 57.9197 128.509C58.89 127.71 58.89 126.853 60.1456 126.168C61.5743 125.441 62.9311 124.581 64.198 123.599C65.0541 122.913 65.8532 121.657 66.8806 121.2C68.2504 120.572 69.3348 120.515 70.7046 119.602C71.6749 118.916 72.5881 117.832 73.5584 117.318C74.3004 116.918 74.8141 116.975 75.7273 116.747C77.3825 116.29 77.782 114.748 79.1518 114.063C80.065 113.606 81.4348 114.006 82.4622 113.778C85.6013 113.092 88.7405 111.551 91.8797 110.694C95.7608 109.667 99.642 108.753 103.523 107.839C99.9273 112.693 95.3613 117.089 90.7382 120.915C89.1971 122.171 80.9212 127.938 85.373 130.393C87.1995 131.364 91.0806 128.166 92.5646 127.424C95.4887 125.881 98.4997 124.508 101.583 123.313C106.548 121.258 112.998 117.603 118.534 117.889C115.167 122 111 125.311 107.176 128.966C103.637 132.335 98.3292 135.418 99.9844 140.899C95.0188 139.643 90.5669 138.159 85.4301 138.501C83.1471 138.672 80.807 138.387 78.524 138.672C76.0126 139.015 73.6726 139.871 71.2754 140.614C69.3919 141.185 67.2801 141.242 65.5107 142.212C64.5937 142.716 63.716 143.289 62.8853 143.925C62.0848 144.574 61.3914 145.345 60.8305 146.209C57.9768 149.749 55.2371 153.118 53.5249 157.572ZM38.0574 226.204C37.8861 225.576 37.772 225.005 37.6008 224.262C39.1418 225.233 39.1418 225.233 38.0574 226.204ZM26.1286 206.219C25.9548 206.362 25.7422 206.449 25.5183 206.47C25.2944 206.49 25.0696 206.443 24.8729 206.334C24.5875 206.048 25.3295 204.906 25.5007 204.678C25.7861 204.906 26.5281 205.706 26.1286 206.219ZM22.7611 198.911C22.9894 198.169 23.1606 197.369 23.3889 196.627C23.6173 197.312 24.8158 198.111 24.8158 198.797C24.8729 199.253 22.9894 199.025 22.7611 198.911ZM23.446 199.996C25.2724 201.195 25.4437 202.565 25.5007 204.621C23.3319 203.936 23.6173 201.823 23.446 199.996ZM54.8947 118.859C54.7234 119.373 53.9244 120.915 53.3536 119.83C53.1824 119.487 54.4951 119.031 54.8947 118.859ZM54.381 117.204C54.8376 116.804 55.7508 117.318 56.2074 116.975C56.5499 116.747 56.4357 116.518 56.6069 116.404C56.664 116.404 57.1206 115.376 57.2919 115.205C57.6343 114.805 58.3763 114.577 58.8329 114.234C60.0315 113.264 60.6593 111.951 61.4584 110.637C62.3716 109.096 62.657 108.867 64.0838 108.182C65.0469 107.69 65.9162 107.033 66.6523 106.241C67.5655 105.27 67.5084 104.585 68.2504 103.5C68.6499 102.986 69.1636 102.929 69.6202 102.472C70.1339 101.958 70.4192 101.273 70.8758 100.759C71.1041 100.531 71.732 100.531 71.9032 100.36C72.0744 100.131 72.1886 99.1606 72.3598 98.9893L73.2159 100.188C74.3575 98.1899 75.2136 96.534 77.0971 95.1637C79.0947 93.7362 80.8641 91.6807 82.9188 90.4246C83.3754 90.1391 84.3457 90.0249 84.6881 89.6252C85.316 88.94 84.7452 88.3119 85.2018 87.6839C85.7155 86.9987 86.6858 87.5697 87.3136 87.2842C88.1127 86.9416 88.341 85.8567 89.3683 85.9709C86.0009 89.9678 86.0009 96.2486 85.8297 101.273C85.7726 103.443 87.0853 104.528 85.0877 106.127C83.3754 107.497 80.9782 107.097 78.9235 107.954C76.4122 109.096 73.6726 109.667 71.1041 110.637C68.4216 111.665 66.2527 113.378 63.6843 114.577C61.4013 115.605 59.8603 117.089 57.8055 118.346C57.0065 118.802 55.8079 119.487 54.8947 118.916C54.3239 118.46 53.639 117.889 54.381 117.204ZM92.7358 83.5157C92.907 82.9447 95.7608 81.4602 96.5028 80.9463C97.5872 80.204 99.1283 78.434 100.327 79.1191C100.726 77.4633 102.382 75.6362 103.808 75.2936C105.904 74.627 107.887 73.6451 109.687 72.3816C110.144 72.039 110.315 71.5251 110.829 71.1825C111.742 70.6115 112.712 70.897 113.568 70.1547C113.683 70.0405 114.938 67.985 114.995 67.985L115.167 68.6702C116.052 68.28 116.863 67.739 117.564 67.0714C117.678 66.9002 116.822 66.5005 117.107 66.215C117.45 65.8724 118.192 66.2721 118.534 65.9295C117.507 71.1254 118.249 77.863 123.557 80.4895C117.278 81.1747 111.114 79.2904 104.779 80.4324C101.695 80.9757 98.6997 81.9361 95.875 83.2873C94.1627 84.1438 91.9938 87.2271 90.3386 85.7425C90.9094 84.8289 91.9367 84.258 92.7358 83.5157ZM123.214 68.4989C124.316 67.1131 125.807 66.0894 127.496 65.5601C129.185 65.0309 130.994 65.0203 132.689 65.5298C136.912 66.7289 135.143 69.698 134.458 72.9525C133.259 71.1825 130.634 69.4125 128.408 69.3554C125.212 69.2983 126.41 71.9248 128.351 72.8955C130.063 73.7519 133.031 73.9803 134.287 75.5791C135.485 77.1207 135.029 79.5759 135.2 81.4031C134.287 81.2889 133.317 81.1176 132.403 81.0034C133.202 76.8352 129.721 76.6068 126.525 75.4078C123.271 74.1516 120.532 71.8106 123.214 68.4989ZM133.716 58.1642V62.0468L129.778 59.82C131.091 59.3061 132.403 58.7351 133.716 58.1642ZM144.218 89.2826C148.556 90.4817 152.894 91.7378 157.117 93.3366C158.658 93.9075 160.313 94.1359 161.797 94.8211C163.224 95.4492 163.452 95.3921 162.939 96.6482C161.512 100.131 158.144 99.5602 155.234 98.9893C150.61 98.1328 146.101 96.9908 141.593 95.906C137.141 94.8211 132.632 94.1359 128.237 92.8227C123.81 91.397 119.315 90.1964 114.767 89.2255C113.397 88.94 102.781 87.9693 102.838 86.8845C109.573 86.028 116.479 86.8845 123.214 86.9416C130.177 87.0558 137.426 87.3984 144.218 89.2826ZM138.282 75.7504C138.339 73.3522 138.396 70.9541 138.682 68.556C140.679 71.0112 142.506 71.7535 145.017 69.4696C147.414 67.2427 147.985 66.1008 151.01 68.1563C153.635 69.9835 156.147 69.8693 159.001 68.2705C160.713 67.2998 163.452 63.3601 165.279 64.1594C166.135 64.5591 166.763 66.1008 167.619 66.6718C168.872 67.4011 170.244 67.9036 171.671 68.1563C174.696 68.8415 176.466 66.9002 178.349 64.8446C181.089 61.8755 180.975 63.5885 183.543 65.644C186.34 67.985 188.737 66.8431 191.305 64.8446C192.846 69.4125 193.417 74.38 193.874 79.1762C194.045 80.775 194.559 83.0589 193.132 84.2009C192.104 85.0002 189.936 85.0573 188.737 85.457C184.298 87.039 180.138 89.3129 176.409 92.1946C174.982 93.3366 173.726 94.7069 171.786 94.4214C169.902 94.193 168.133 92.5943 166.592 91.5665C164.936 90.4246 163.338 89.1684 161.398 88.5403C160.256 88.1977 158.487 88.3119 157.517 87.6267C155.69 86.3706 157.859 83.116 157.402 80.9463C157.06 79.2904 156.09 75.8074 153.807 76.7781C150.382 78.2056 152.38 83.9154 154.263 85.6854C150.254 85.0061 146.303 84.0134 142.449 82.7163C139.538 81.9169 138.225 78.7195 138.282 75.7504ZM202.663 87.4555C210.54 85.2286 217.903 83.7441 226.121 83.3444C229.774 83.1731 233.256 83.2873 236.852 83.2873C238.906 83.2873 240.505 81.6315 238.849 79.7472C236.566 77.1207 229.603 78.0914 226.521 77.9772C218.482 77.5465 210.436 78.6908 202.835 81.346C203.691 79.8043 205.631 79.633 207.001 78.8336C208.619 77.8088 209.861 76.2859 210.54 74.4942C212.423 69.8692 210.54 65.5298 208.599 61.3045C212.423 62.3323 216.362 64.5591 220.243 65.1301C220.939 65.1559 221.63 65.271 222.297 65.4727C222.754 65.644 222.868 66.2721 223.439 66.3863C223.724 66.4434 224.352 65.8724 224.638 65.9295C225.836 66.2721 224.866 66.3292 225.608 66.8431C226.179 67.2427 226.121 67.6995 227.206 67.5282C227.663 67.4711 228.176 66.7289 228.462 66.6718C228.804 66.6718 228.69 66.2721 229.204 66.3863C230.117 66.6147 230.003 67.7566 230.288 68.3276C230.63 68.9557 230.174 69.7551 231.144 70.0406C231.886 70.2689 232.057 69.5267 232.685 69.5838C233.245 69.7676 233.753 70.0805 234.169 70.4973C235.332 71.6554 236.659 72.6366 238.107 73.4093C237.993 73.2951 238.792 72.9526 238.564 72.8384C238.797 72.8751 239.026 72.9324 239.249 73.0096C240.048 73.1809 240.505 74.4371 240.904 74.8939C241.736 75.8226 242.771 76.5457 243.929 77.0065C245.755 77.6346 245.698 76.8923 246.383 79.062C247.696 77.0065 248.21 80.4324 249.808 80.8321C250.664 81.0034 250.55 80.6608 251.349 81.1176C251.863 81.4031 252.205 82.3737 252.605 82.7734C252.776 82.1453 252.947 81.4602 253.118 80.8321C254.317 83.0589 256.828 86.599 259.625 85.9709C259.625 86.599 259.397 87.2842 259.853 87.798C260.196 88.1406 260.709 87.7409 260.995 87.9693C261.223 88.1406 261.737 88.8829 261.908 88.9971C262.25 89.2255 262.878 89.3968 263.164 89.6252C263.449 89.8536 263.563 90.8242 263.848 91.1668C264.362 91.852 265.332 91.9662 265.789 92.7656C265.903 91.9662 266.017 91.1668 266.074 90.3675C266.931 91.0526 267.045 91.5665 267.216 92.5372C267.501 93.9646 267.102 93.622 268.072 94.193C269.042 94.764 269.499 94.7069 270.412 95.7347C271.268 96.7053 271.268 97.3334 272.524 96.3057C272.752 97.0479 272.809 98.0757 273.437 98.6467C273.894 99.1035 275.834 99.1035 276.006 100.131C272.41 97.105 274.75 101.73 276.006 100.131C276.291 101.844 277.49 102.358 278.916 103.557C280.229 104.699 280.457 104.585 280.914 106.469C281.167 106.581 281.399 106.735 281.599 106.926C280.343 107.097 282.284 108.525 282.626 108.81C282.855 108.981 283.197 108.525 283.597 108.867C284.072 109.36 284.476 109.917 284.795 110.523C285.672 111.761 286.626 112.943 287.649 114.063C288.79 115.205 289.361 116.69 290.503 118.003C291.758 119.487 292.443 121.2 293.471 122.856C294.441 124.398 295.754 125.654 296.895 127.082C298.722 129.308 299.349 134.276 302.717 134.447C302.546 134.676 302.774 136.217 302.831 136.446C303.002 137.816 302.888 139.186 303.687 140.442C303.858 139.015 304.658 139.529 305.285 140.328C306.37 141.584 305.399 141.299 305.457 142.555C305.514 144.097 305.685 142.898 306.313 144.268C306.746 145.198 307.072 146.175 307.283 147.18C305.342 147.351 304.486 145.753 303.801 144.268C303.516 143.64 303.402 142.612 302.888 142.098C302.317 141.584 301.575 141.527 301.005 140.956C299.92 139.814 299.407 138.044 298.151 136.959C296.667 135.703 296.382 135.132 295.126 133.648C293.813 131.992 291.93 130.85 290.503 129.251C289.076 127.652 289.19 128.509 287.421 127.938C285.537 127.31 282.512 121.429 280.115 123.656C280.229 122.171 278.003 120.744 276.862 120.23C276.348 120.001 275.834 120.23 275.321 119.83C274.807 119.43 274.75 118.745 274.236 118.288C273.918 118.365 273.593 118.403 273.266 118.403C272.923 118.231 272.923 117.603 272.638 117.432C271.777 116.845 270.881 116.311 269.956 115.833C267.844 114.691 265.96 113.264 263.906 111.893C262.136 110.694 260.024 108.582 257.97 107.954C256.2 107.383 255.059 107.668 253.632 106.583C252.833 106.012 253.061 105.784 251.806 105.441C250.607 105.099 249.922 105.27 249.294 103.957C248.153 101.73 248.895 97.3334 248.666 94.764C248.495 92.0513 248.094 89.3581 247.468 86.7132C246.669 83.6299 245.527 82.0311 242.217 82.7734C235.653 84.2009 229.204 85.5712 222.64 86.8274C209.512 89.3397 196.67 93.4508 183.828 97.105C182.858 97.3905 177.379 98.6467 178.52 95.7918C179.034 94.4785 182.459 94.0217 183.657 93.622C189.821 91.5665 196.214 89.2826 202.663 87.4555ZM200.437 81.7457C199.467 82.0882 198.497 82.4879 197.584 82.8305V80.1469C198.554 80.6608 199.524 81.1747 200.437 81.7457ZM196.499 67.6424C197.355 68.3276 199.011 66.6718 199.753 66.3292C201.024 65.6849 202.437 65.3708 203.862 65.4156C204.459 65.4858 205.036 65.6761 205.558 65.9753C206.08 66.2745 206.536 66.6762 206.899 67.1563C207.262 67.6364 207.523 68.185 207.668 68.769C207.813 69.353 207.839 69.9603 207.743 70.5544C206.944 74.7797 201.008 76.721 197.698 78.3769C197.584 76.8923 197.127 75.1223 198.154 73.809C199.068 72.6671 200.837 72.7812 201.636 71.5822C203.748 68.6131 198.04 68.3276 196.785 70.7257C196.271 69.1841 195.757 67.6995 195.301 66.1579C196.385 65.9866 195.871 67.1285 196.499 67.6424ZM202.378 59.4203C201.179 60.1626 199.981 60.962 198.839 61.7042C198.212 59.0777 200.209 58.7351 202.378 59.4203ZM310.65 151.976C309.109 152.719 308.71 150.949 307.568 150.891C308.881 150.092 308.881 150.092 310.65 151.976ZM316.986 190.746C317.157 193.315 317.043 195.885 317.385 198.397C317.671 200.338 318.413 202.108 318.527 204.107C318.741 208.424 317.244 212.65 314.36 215.869C311.463 218.926 307.884 221.254 303.916 222.664C302.26 223.235 300.491 224.491 298.836 224.948C297.009 225.461 295.297 224.377 293.813 226.318C292.843 217.81 293.528 208.846 293.471 200.281C293.414 191.659 293.471 183.095 292.044 174.587C290.731 166.993 288.22 158.485 283.482 152.262C281.513 149.824 279.251 147.638 276.748 145.753C275.491 144.7 274.155 143.745 272.752 142.898C270.526 141.699 268.643 141.87 266.246 141.527C262.821 141.013 259.625 140.614 256.143 141.584C252.947 142.498 249.408 143.526 246.497 145.067C243.644 146.609 240.276 147.294 237.308 148.665C235.311 149.635 231.087 152.776 228.861 152.205C226.692 151.634 223.496 147.979 222.069 146.324C220.355 144.123 218.755 141.836 217.275 139.472C216.704 138.672 215.62 137.416 215.448 136.389C215.22 134.618 215.905 135.189 217.617 135.418C221.921 135.877 226.167 136.776 230.288 138.101C232.4 138.787 236.452 141.527 238.507 139.871C241.703 137.359 236.852 132.963 235.082 131.535C232.057 129.023 228.576 127.196 225.322 124.969C221.898 122.628 217.389 120.116 215.22 116.461C221.613 118.346 228.062 120.515 234.283 122.97C237.137 124.051 239.92 125.31 242.616 126.739C244.1 127.595 247.182 129.822 248.952 128.737C252.89 126.396 243.872 119.545 242.559 118.174C240.505 116.004 238.564 113.835 236.338 111.893C234.854 110.58 232.457 109.61 231.772 107.668C234.283 108.582 236.281 110.352 238.621 111.551C239.783 112.154 241.036 112.559 242.331 112.75C243.758 112.978 243.929 113.207 245.071 113.778C245.962 114.314 246.898 114.772 247.867 115.148C248.552 115.376 249.808 115.376 250.436 115.776C250.778 116.233 251.064 116.69 251.406 117.089C251.795 117.197 252.176 117.331 252.547 117.489C253.118 118.003 253.404 118.631 253.974 119.145C257.856 122.799 263.049 125.426 267.387 128.509C271.497 131.421 275.834 134.047 279.773 137.188C284.282 140.842 289.019 144.725 292.9 149.121C295.018 151.652 296.963 154.323 298.722 157.115C300.034 159.114 301.975 160.712 303.116 162.768C305.628 167.221 307.683 172.018 310.365 176.414C312.991 180.868 316.529 185.322 316.986 190.746ZM280.115 216.554C280.857 213.471 285.081 209.874 287.763 208.503C286.393 211.872 282.798 214.156 280.115 216.554ZM287.021 227.289C284.738 232.085 274.636 232.599 276.006 225.519C276.69 222.036 279.544 219.923 281.999 217.696C283.14 216.668 285.88 212.9 287.649 213.528C287.592 216.212 287.421 218.895 287.421 221.636C287.421 223.406 287.877 225.633 287.021 227.289ZM284.11 172.303C285.024 174.416 285.994 176.129 284.224 178.013C283.425 178.869 280.914 180.697 279.773 180.297C276.063 178.984 283.14 173.217 284.11 172.303ZM261.794 153.632C262.707 153.575 263.563 153.689 264.419 153.689C265.275 153.632 265.389 153.461 266.189 153.575C266.297 153.698 266.393 153.832 266.474 153.975C266.588 154.831 267.045 154.888 267.787 154.26C268.768 154.42 269.714 154.748 270.583 155.231C267.844 157.229 264.476 159.513 261.109 160.198C255.744 161.226 257.228 153.918 261.794 153.632ZM180.004 198.283C179.434 199.368 177.836 196.627 177.493 196.113C178.235 196.113 180.575 197.141 180.004 198.283ZM222.868 168.992C227.225 166.569 231.745 164.451 236.395 162.654C237.194 166.422 233.37 171.275 231.03 173.845C229.146 175.957 226.863 178.07 224.238 179.269C221.441 180.582 218.416 180.011 218.53 176.357C218.575 174.757 218.883 173.175 219.444 171.675C220.129 170.133 221.441 169.848 222.868 168.992ZM166.877 100.417C167.505 100.36 174.183 99.5031 174.183 100.36C174.069 102.815 167.562 100.874 166.877 100.417ZM119.504 148.779C123.043 144.439 128.751 139.7 128.865 133.591C128.979 124.626 119.048 129.08 114.025 129.48C116.65 126.853 130.006 115.947 122.13 112.065C119.847 110.923 116.65 112.065 114.367 112.636C110.315 113.663 106.605 115.491 102.61 116.69C105.464 113.663 110.315 110.238 110.144 105.67C109.973 100.131 105.407 101.444 101.468 102.301C99.9273 102.586 93.1924 105.327 91.9367 103.5C91.4801 102.815 92.2221 101.958 92.3933 101.387C92.5849 100.564 92.6617 99.719 92.6217 98.8751C92.6217 96.7053 94.1056 93.9075 92.907 91.9091C92.622 92.3556 92.3921 92.8349 92.2221 93.3366C91.8226 92.1375 92.108 90.9384 91.7084 89.7394C101.525 92.2517 111.571 93.622 121.445 95.7918C126.467 96.8766 131.148 98.7609 136.227 99.6173C141.364 100.474 146.387 101.787 151.524 102.586C156.204 103.329 160.713 104.528 165.336 105.498C169.845 106.412 174.468 104.414 178.92 103.386C188.794 101.102 198.668 98.7609 208.542 96.534C219.957 93.9646 231.829 91.7949 242.73 87.5126C242.959 93.2224 243.415 98.8751 244.1 104.528C239.249 102.244 232.114 99.2747 227.263 103.329C226.329 104.171 225.662 105.27 225.348 106.488C225.033 107.707 225.084 108.991 225.494 110.18C226.35 112.807 228.918 114.006 230.63 115.947C225.437 114.634 212.138 105.27 209.741 114.748C208.086 121.429 216.247 125.711 220.243 129.48C216.247 128.68 210.939 125.54 208.656 130.622C206.659 135.018 209.056 139.814 211.567 143.469C212.937 145.467 214.421 147.294 215.848 149.178C216.59 150.206 217.332 151.234 218.131 152.205C218.93 153.175 220.414 154.203 220.985 155.288C222.126 157.401 219.843 157.572 218.074 158.314C215.848 159.285 213.964 160.884 211.967 162.197C207.344 165.166 203.291 167.907 197.869 168.82C192.276 169.791 186.853 170.819 181.317 172.132C175.781 173.502 171.272 174.758 165.621 173.045C163.053 172.246 160.941 171.561 158.202 171.675C155.348 171.846 153.635 171.675 151.295 169.905C141.022 162.311 130.006 156.03 119.504 148.779ZM101.183 141.128C105.121 139.186 109.059 137.188 113.112 135.475C116.479 134.047 121.559 132.449 125.212 133.077C124.184 135.76 122.301 137.93 120.246 139.871C118.477 141.584 116.194 144.211 114.025 145.41C112.027 146.495 109.744 144.782 107.804 144.04C105.749 143.24 102.838 142.841 101.183 141.128ZM102.21 151.063C104.151 150.263 108.375 153.004 110.144 153.689C113.625 155.06 117.164 156.544 120.246 158.714C116.479 163.053 112.199 167.05 107.176 169.848C103.866 171.675 98.2151 173.788 95.0759 170.476C91.1377 166.308 95.875 157.743 98.6717 154.146C98.7858 154.774 98.8429 155.402 98.957 155.973C99.8132 154.546 100.498 151.748 102.21 151.063ZM173.954 188.234C171.5 188.747 170.701 188.291 169.103 186.406C168.019 185.15 166.934 183.837 165.736 182.695C164.48 181.553 161.398 178.755 165.336 180.354C168.932 181.839 172.014 182.581 175.952 182.01C180.461 181.325 184.685 179.44 189.136 178.47C186.682 180.582 184.285 182.752 181.831 184.922C179.205 187.149 177.265 187.548 173.954 188.234ZM174.525 205.477C169.16 209.474 158.43 209.074 162.026 200.224C162.587 198.87 163.336 197.601 164.252 196.456C164.576 195.904 165.002 195.42 165.507 195.028C166.706 194.286 166.363 194.229 167.505 195.428C168.475 196.456 176.123 204.849 174.525 205.477ZM172.927 190.061C173.441 189.889 175.495 188.69 175.952 189.375C176.466 190.061 172.413 192.345 172.927 190.061ZM211.853 251.441C210.654 254.296 201.008 258.464 202.835 252.697C203.634 250.128 204.376 248.186 207.344 248.015C209.113 247.901 212.937 248.929 211.853 251.441ZM229.146 212.443C230.745 210.159 235.939 207.019 238.164 210.445C239.249 212.101 236.623 212.957 235.025 212.5C234.169 212.272 233.484 211.758 232.571 211.701C231.43 211.758 230.231 212.671 229.146 212.443ZM233.313 214.727C232.229 215.812 225.722 221.293 224.695 220.437C226.806 217.411 229.261 214.042 233.313 214.727ZM222.697 270.055C220.414 270.169 221.555 266.8 221.784 265.43C222.355 266.401 225.208 269.941 222.697 270.055ZM228.462 264.003C227.72 262.689 225.779 260.748 226.236 259.092C226.578 257.836 229.66 256.123 230.916 256.808C232.628 257.779 230.117 264.174 228.462 264.003ZM281.941 250.356C280.971 253.668 280.001 252.811 276.976 253.44C273.951 254.068 271.839 256.637 269.156 258.064C270.07 256.123 270.64 253.725 272.239 252.126C272.581 251.784 274.807 251.041 273.551 250.185C272.467 249.443 270.869 251.841 270.412 252.526C268.072 255.781 266.474 259.72 265.161 263.432C264.474 265.241 263.977 267.116 263.677 269.027C263.392 270.74 263.677 272.51 263.392 274.223C262.935 276.907 259.282 276.907 257.114 277.592C255.14 278.29 253.118 278.844 251.064 279.248C249.294 279.533 247.411 279.019 245.698 279.362C243.815 279.762 242.959 280.847 240.847 280.618C239.135 280.39 237.48 279.59 235.71 279.533C234.055 279.476 232.4 280.047 230.802 279.59C229.146 279.134 229.204 278.962 229.603 277.307C229.831 277.763 230.06 278.163 230.288 278.62C230.973 278.106 231.43 276.507 231.829 275.765C232.457 274.623 232.971 274.223 232.742 272.796C232.4 270.683 230.516 269.199 230.06 267.2C229.603 265.088 231.144 263.375 232.057 261.662C233.313 259.264 233.313 257.493 232.229 255.038C233.028 255.267 233.827 255.438 234.626 255.666C233.541 253.325 229.888 254.239 228.005 254.981C227.092 255.324 225.608 256.694 224.638 256.694C223.268 256.637 222.526 254.867 221.955 253.839C220.243 250.984 218.302 248.129 216.304 245.446C215.734 244.704 215.049 244.247 215.22 243.39C215.391 242.705 216.989 241.677 217.503 241.221C219.444 239.565 221.898 238.708 223.724 236.938C226.464 234.312 229.603 232.485 232.457 229.915C235.368 227.232 238.393 224.833 241.418 222.321C244.5 219.752 247.182 216.783 250.207 214.213C251.006 215.641 252.548 220.779 254.317 221.179C256.372 221.636 256.314 219.238 256.2 217.753C256.029 215.698 254.888 213.642 254.773 211.644C254.659 209.531 256.657 208.56 258.198 207.361C260.595 205.477 265.846 201.138 262.992 197.598C260.538 194.514 252.605 200.395 250.436 202.165C248.552 203.65 247.125 205.02 245.071 206.219C243.587 207.076 241.132 210.273 239.363 209.931C237.308 209.588 236.452 207.304 233.941 207.361C231.487 207.418 229.375 209.246 227.834 211.016C224.352 215.07 223.154 220.494 220.014 224.719C218.473 226.832 216.419 228.545 214.706 230.486C212.823 232.656 212.423 235.168 210.597 237.281C205.346 230.258 199.638 223.634 194.102 216.897C191.362 213.528 188.623 210.102 185.94 206.676C184.913 205.42 183.771 204.164 182.858 202.851C181.603 201.023 181.831 199.539 181.317 197.483C181.089 196.57 180.061 195.485 180.347 194.629C180.746 193.429 183.315 192.516 184.285 192.059C188.166 190.118 191.648 187.663 195.244 185.264C201.921 180.811 208.656 176.7 215.734 172.874C215.62 174.53 214.535 176.186 215.277 177.842C215.62 176.928 216.133 172.703 217.389 172.532C217.161 172.589 217.332 177.899 217.56 178.698C218.131 180.982 219.843 182.524 222.24 182.524C226.806 182.467 230.916 177.499 233.484 174.187C235.197 171.961 236.852 169.334 237.48 166.536C238.05 164.024 237.422 162.254 240.048 160.998C245.313 158.366 250.842 156.299 256.543 154.831C256.257 157.286 255.573 160.37 257.798 162.14C260.253 164.081 263.506 162.368 265.846 161.055C268.186 159.742 271.725 156.259 274.465 157.286C277.147 158.314 278.974 161.626 280.515 163.853C281.827 165.794 283.254 167.221 281.713 169.391C280.001 171.846 278.916 174.245 277.49 176.871C276.976 177.899 276.462 178.584 276.805 179.612C277.335 180.571 277.966 181.471 278.688 182.295C281.085 184.122 284.282 180.639 285.994 179.269C286.565 185.036 286.736 190.746 286.964 196.57C287.135 200.795 288.79 204.963 285.309 208.047C281.827 211.13 278.916 214.327 276.805 218.495C275.663 220.722 274.636 223.006 273.437 225.233C272.638 226.718 270.926 228.83 271.953 230.543C273.038 229.515 273.38 227.86 274.35 226.718C274.921 229.173 275.492 231.914 278.06 232.998C281.085 234.197 284.053 232.142 286.736 230.943C285.708 237.566 283.825 243.961 281.941 250.356ZM278.916 257.95C276.862 262.347 274.978 267.657 271.154 270.912C270.298 271.597 266.759 274.395 265.389 273.938C264.248 273.538 264.876 271.197 265.047 270.226C266.074 265.202 267.844 262.004 271.896 258.807C273.608 257.493 275.777 255.781 277.946 255.438C280.343 255.095 279.715 256.237 278.916 257.95ZM337.076 362.668C331.711 355.417 324.177 349.707 317.043 344.283C313.79 341.827 310.251 339.943 306.998 337.488C303.36 334.63 299.483 332.089 295.411 329.894C287.535 325.897 278.973 323.099 271.611 318.36C268.015 316.076 264.02 313.849 260.652 311.223C259.195 310.004 257.804 308.708 256.486 307.34C255.23 306.141 252.548 304.371 252.034 302.601C254.146 302.258 255.287 300.26 257.171 300.032C257.798 299.974 261.623 301.002 261.109 299.118C262.033 299.127 262.955 299.012 263.848 298.775C264.305 298.661 264.933 298.832 265.389 298.661C266.132 298.376 266.645 297.633 267.387 297.348C267.901 297.12 269.898 297.348 270.241 297.12C271.04 296.434 270.184 296.491 269.67 295.578C271.268 295.521 272.353 296.32 274.008 295.464C274.491 295.095 274.948 294.694 275.378 294.265C276.234 293.694 276.519 294.55 277.09 293.408C277.604 295.007 277.604 294.55 278.916 294.093C280.102 293.609 281.352 293.301 282.626 293.18C286.165 292.894 289.704 293.351 293.185 293.066C294.441 292.951 295.582 292.666 296.838 292.837C297.98 293.008 297.637 293.751 298.55 292.723C298.779 292.495 298.094 291.809 298.379 291.467C298.55 291.296 299.007 291.41 299.178 291.353C300.833 290.61 300.833 291.638 301.119 292.951C302.096 292.775 303.039 292.447 303.916 291.981C303.516 291.581 302.774 291.181 303.174 290.496C304.543 291.01 305.457 290.782 304.772 292.323C306.141 292.78 306.427 292.209 307.682 292.038C308.424 291.981 309.452 292.438 310.08 291.809C310.765 291.181 309.68 290.439 310.936 289.925C311.179 290.054 311.378 290.253 311.507 290.496C312.191 290.725 312.077 290.953 311.164 291.296C313.618 292.552 313.048 291.124 314.075 289.64C314.303 289.297 315.388 288.212 315.844 288.726C316.586 289.525 315.102 289.754 315.388 290.553C315.958 291.924 317.899 290.154 318.47 289.468C318.926 288.955 319.098 287.984 319.611 287.584C320.296 287.07 321.267 287.87 322.123 287.755C325.947 287.07 329.6 281.874 326.689 278.448C325.89 277.535 325.262 277.706 324.349 277.135C323.435 276.564 322.922 275.536 322.18 274.737C320.511 272.86 318.417 271.411 316.073 270.512C310.529 268.436 304.82 266.832 299.007 265.716C296.382 265.202 293.528 264.402 290.788 264.402C289.19 264.402 286.793 265.659 285.309 265.03C282.398 263.888 286.679 257.95 287.364 256.009C289.429 250.313 290.995 244.448 292.044 238.48C292.272 237.338 292.158 235.796 292.557 234.711C293.014 233.455 293.128 233.626 294.156 233.512C295.982 233.341 298.037 234.312 299.977 233.969C302.089 233.569 304.429 233.798 306.598 233.113C307.591 232.906 308.492 232.386 309.166 231.628C309.395 231.343 309.166 231.114 309.281 230.943C309.563 230.653 309.83 230.348 310.08 230.029C310.061 229.626 310.099 229.223 310.194 228.83C310.936 229.458 310.593 230.772 311.849 230.772C312.077 229.401 312.077 229.116 312.991 228.316C313.193 228.16 313.384 227.988 313.561 227.802C313.607 227.556 313.704 227.323 313.847 227.117C314.265 226.884 314.738 226.766 315.216 226.775C316.187 225.747 315.787 225.233 315.787 223.863C316.586 224.262 317.385 224.662 318.184 225.119C318.356 221.065 320.81 218.895 322.465 215.583C323.15 214.213 323.892 213.128 324.006 211.415C324.12 210.445 323.835 209.588 324.234 208.675C324.577 207.818 325.433 207.418 325.775 206.505C326.46 204.735 325.947 202.451 326.004 200.624C326.061 198.054 326.289 195.542 326.403 192.973C326.499 187.907 326.136 182.842 325.319 177.842C324.976 175.444 324.349 173.16 323.892 170.819C323.492 168.877 322.579 167.05 322.237 165.28C322.123 164.538 322.294 163.853 322.066 163.053C321.78 161.968 321.267 160.884 320.924 159.856C320.068 157.343 319.212 154.888 318.241 152.433C316.358 147.694 314.189 143.069 312.077 138.444C310.08 133.99 308.424 129.365 305.799 125.14C303.231 121.029 300.491 116.975 297.637 113.035C294.726 108.924 290.959 105.384 288.106 101.273C282.741 93.5079 275.264 87.0558 267.501 81.8027C251.406 70.897 233.998 59.9913 214.649 56.2228C211.736 55.6241 208.776 55.2802 205.803 55.1951C203.976 55.138 200.894 56.0515 199.182 55.4234C197.241 54.7383 197.412 52.5114 196.899 50.7985C196.271 48.5717 194.844 47.1442 193.246 45.5455C191.534 43.8896 189.993 41.9483 187.881 40.8634C185.712 39.7215 183.201 39.3218 180.861 38.9792C178.749 38.6937 175.553 38.9792 173.612 38.0085C171.843 37.1521 172.699 36.2956 174.354 37.0379C174.399 36.3924 174.638 35.7756 175.039 35.2678C175.267 34.9823 176.352 34.5827 176.409 34.2972C176.466 34.0117 175.495 33.0981 175.381 32.6984C175.141 31.7476 175.221 30.744 175.61 29.8435C177.265 31.3281 177.778 31.9561 179.605 30.5858C180.168 30.078 180.828 29.6895 181.545 29.4438C181.774 29.3867 182.344 29.6151 182.573 29.5009C183.372 28.987 182.63 29.1012 183.029 28.4732C182.915 28.6445 183.6 26.9315 183.6 27.2741C183.657 26.3605 183.943 26.646 183.429 25.5612C182.344 23.3914 179.605 23.2772 181.032 20.822C181.603 19.8514 182.059 19.9655 182.23 18.5381C182.287 17.7958 182.23 16.8823 182.23 16.14C182.23 14.5412 182.516 13.4564 181.032 12.657C179.605 11.8576 178.292 12.7141 177.721 10.8299C177.094 8.83143 177.721 6.20492 175.553 4.83456C173.954 3.8068 171.671 4.66327 169.902 4.20648C168.133 3.6926 166.477 1.92256 164.708 3.29292C163.452 4.26358 162.768 6.7188 160.37 5.40554C159.286 4.83456 158.715 2.83613 158.03 1.69417C156.946 -0.0758703 156.09 -0.703949 154.377 1.00899C153.35 2.09386 151.181 4.66327 151.01 6.14782C150.839 7.80366 152.266 8.48884 150.496 9.40241C148.727 10.3731 147.7 9.6308 146.273 11.6292C144.846 13.5706 145.93 14.6554 144.275 16.4826C142.22 18.8236 141.079 19.7943 141.136 22.9346C141.136 25.0473 139.252 26.9315 140.394 28.9299C141.65 31.2139 145.245 32.1274 147.414 33.0981C146.672 34.4685 145.702 35.3249 146.558 36.6953C147.357 37.9514 149.526 38.2369 150.839 38.0085C151.752 37.8372 151.809 38.0085 152.494 37.3805C152.951 36.9808 152.323 36.4669 153.293 36.1814C154.32 35.953 155.976 37.9514 156.603 38.4653C155.119 40.4067 151.01 40.7492 148.841 41.7199C147.528 42.2909 146.33 43.2045 144.96 43.7183C143.761 44.2322 142.277 44.118 141.136 44.8603C139.252 46.1736 138.453 49.371 137.255 51.2553C135.942 53.3679 134.629 54.3957 132.118 54.8525C128.922 55.4234 126.41 55.6518 123.442 57.0222C119.847 58.7351 116.251 60.5052 112.712 62.3323C107.077 65.1796 101.608 68.3441 96.3316 71.8106C90.7952 75.522 85.3731 79.4046 80.0079 83.2873C74.6999 87.1129 70.248 91.852 65.6249 96.4769C61.915 100.245 58.6046 104.299 54.8947 108.011C50.4999 112.464 47.3036 118.003 43.2513 122.742C41.0253 125.311 38.9135 127.824 37.4866 130.85C36.3451 133.305 34.4045 135.703 33.0918 138.273C31.4366 141.584 29.8385 144.782 27.955 147.979C27.1559 149.293 26.2427 150.435 25.4437 151.634C24.4163 153.232 24.4734 154.774 24.188 156.601L23.3319 155.231C22.8182 156.373 22.1333 157.515 21.6767 158.714C21.3913 159.456 21.4484 160.541 21.1059 161.226C20.7635 162.083 20.3069 161.968 19.8503 162.654C19.3366 163.396 19.2224 164.367 18.6517 165.166C16.4257 168.592 15.5125 172.988 14.371 176.928C12.83 182.181 13.0583 188.234 13.1724 193.658C13.2194 199.389 13.6389 205.111 14.4281 210.787C15.1947 215.916 16.9178 220.855 19.5078 225.347C21.7908 229.287 24.93 231.571 28.9253 233.569C30.7517 234.483 32.464 234.197 34.4045 234.369C36.5163 234.54 38.0003 235.111 40.2262 234.597C41.3107 234.369 41.8244 233.569 42.6805 233.284C43.1942 233.113 43.4796 233.398 43.9932 233.341C44.7352 233.227 46.2192 232.884 47.0182 232.998C49.4725 233.284 49.073 236.995 49.3013 238.88C49.7008 241.792 49.9291 244.761 50.4428 247.673C51.4701 253.782 53.7532 259.492 55.123 265.487C49.1338 266.114 43.2581 267.555 37.6578 269.77C31.7791 272.168 25.8432 272.967 19.679 274.109C13.9144 275.194 8.32099 277.249 3.69786 281.018C1.52899 282.788 -0.696957 284.786 0.844085 287.698C1.87145 289.525 3.69786 289.982 5.29598 291.067C5.63844 290.667 4.66815 289.811 4.49692 289.583C5.80966 289.868 5.80966 290.496 6.77995 291.01C7.63608 291.467 8.32099 291.467 9.2342 291.809C11.5172 292.609 12.6017 294.664 14.8847 295.235C15.5696 295.407 16.5399 295.863 17.2248 295.978C18.0809 296.149 18.7658 295.749 19.622 295.921C20.1027 296.217 20.621 296.447 21.163 296.606C21.5055 296.434 21.905 296.263 22.2474 296.092C23.5031 296.206 24.3022 297.005 25.3295 297.691C25.3866 296.891 25.2724 296.035 26.0715 295.464C26.3569 296.263 25.9003 296.777 26.6993 297.348C27.7267 298.033 29.1536 297.177 30.0668 296.72C30.3522 299.403 36.5163 299.232 38.4569 299.175C41.1395 299.118 43.8791 298.033 46.5616 298.661C47.9315 298.947 49.4154 299.289 50.8423 299.689C52.4975 300.146 54.5522 300.603 56.1503 301.173C56.7782 301.402 57.5772 302.201 58.3192 302.144C58.89 302.087 59.0041 301.288 59.689 301.288C60.431 301.288 60.6593 302.144 61.2871 302.373C62.2574 302.715 63.1136 302.03 63.9697 302.373C64.3122 302.487 64.7117 303.058 65.1683 303.229C65.7961 303.515 67.0518 303.515 67.7367 303.629C68.6468 303.721 69.5616 303.76 70.4763 303.743C71.1612 303.8 71.1612 304.257 71.4466 304.257C71.8461 304.314 72.474 303.001 72.9876 302.829C73.7296 302.544 75.0424 303.229 75.7843 303.343C70.3137 310.642 63.9257 317.205 56.7782 322.871C49.13 328.98 41.3107 335.147 33.1489 340.514C25.729 345.424 18.5375 349.593 12.7729 356.502C7.92146 362.326 0.159177 368.549 1.35777 376.943C2.55635 385.336 11.6884 388.762 18.9941 390.418C28.1833 392.416 37.6578 391.617 46.9041 392.759C50.9893 393.13 55.1021 393.073 59.1753 392.587C63.8555 392.074 67.8508 389.047 71.9032 386.821C79.1518 382.824 85.316 377.514 92.4504 373.403C101.354 368.264 110.201 362.839 120.018 359.414C124.584 357.815 129.264 355.988 132.917 352.676C133.488 352.162 133.887 351.42 134.515 351.02C135.543 350.335 135.828 351.02 136.456 350.849C136.912 350.678 137.369 350.164 137.768 350.049C138.796 349.65 139.252 349.821 140.394 349.821C139.424 349.25 138.51 347.766 139.538 346.566C141.307 344.511 141.593 347.766 142.277 348.565C142.848 347.823 142.62 347.195 142.506 346.395C142.962 346.681 143.476 347.023 143.933 347.309C143.616 345.795 143.903 344.218 144.732 342.912C145.531 341.656 145.702 341.827 145.93 340.057C148.327 342.227 148.784 336.917 149.012 334.976C149.241 333.091 149.012 331.778 150.268 330.122C151.581 328.352 153.635 327.267 155.291 325.897C157.973 323.727 160.884 320.987 164.537 323.099C167.448 324.755 168.989 328.752 171.728 330.807C173.384 332.064 175.096 332.178 176.18 334.119C177.036 335.661 177.322 337.545 178.121 339.201C180.061 343.083 182.858 347.594 186.054 350.563C189.022 353.361 192.846 353.361 196.328 355.074C199.777 356.904 203.343 358.506 207.001 359.87C210.996 361.241 215.277 361.812 219.158 363.467C221.156 364.324 222.925 365.58 224.923 366.379C227.092 367.236 229.375 367.864 231.601 368.663C240.333 371.804 248.838 375.686 257.97 377.457C262.022 378.256 265.789 380.368 269.898 380.768C271.553 380.938 273.193 381.224 274.807 381.625C277.49 382.31 276.919 382.652 277.946 384.936C279.601 388.648 283.54 386.421 286.622 386.535C291.53 386.706 296.382 385.907 301.29 385.85C309.851 385.793 318.127 384.822 326.46 382.024C334.508 378.941 344.04 372.089 337.076 362.668Z" fill="black"/>
<path fill-rule="evenodd" clip-rule="evenodd" d="M237.879 73.8086C237.993 73.9228 238.278 73.9799 237.879 73.8086V73.8086Z" fill="black"/>
<path fill-rule="evenodd" clip-rule="evenodd" d="M86.6275 231.286C88.511 229.402 96.4445 229.802 97.0152 233.171C97.7001 236.939 90.6228 242.649 87.9973 244.248C84.6869 246.303 80.5775 246.703 81.1482 241.507C81.6619 237.624 84.002 233.97 86.6275 231.286ZM93.1912 227.404C93.4195 228.431 91.6501 228.089 91.1365 227.86C90.9081 227.347 92.9629 226.319 93.1912 227.404ZM79.493 234.313C81.0911 234.427 82.8605 231.914 84.0591 231.058C84.5728 231.857 81.0911 236.368 80.7487 237.396C79.7784 239.965 79.2647 243.163 80.5775 245.732C84.4015 253.212 94.1615 242.535 96.5586 238.823C98.2709 236.197 99.4695 232.999 97.0152 230.43C96.1591 229.516 94.7322 229.288 93.9332 228.431C92.9058 227.289 93.7048 225.805 91.593 226.09C90.1662 226.262 88.3968 227.575 86.9699 228.032C85.2816 228.515 83.682 229.267 82.2327 230.259C81.9473 230.487 77.5525 234.141 79.493 234.313Z" fill="black"/>
<path fill-rule="evenodd" clip-rule="evenodd" d="M191.362 236.825C190.391 241.963 185.312 247.216 179.946 247.388C174.638 247.616 172.926 242.02 173.839 237.567C174.638 233.798 177.892 227.175 182.572 227.917C186.225 228.488 192.218 232.428 191.362 236.825ZM187.937 228.26C184.57 225.633 179.889 224.434 176.008 226.49C174.753 227.175 169.616 230.144 171.157 232.2C173.269 230.601 175.038 228.317 177.778 227.803C177.321 229.916 174.695 231.8 173.782 233.855C172.663 236.305 172.154 238.989 172.298 241.678C172.641 246.36 175.78 250.014 180.631 249.386C185.083 248.815 189.021 245.389 191.133 241.507C193.987 236.368 192.389 231.686 187.937 228.26Z" fill="black"/>
<path fill-rule="evenodd" clip-rule="evenodd" d="M156.659 248.472C154.262 252.012 150.609 255.381 146.386 256.465C140.907 257.893 142.448 253.382 144.103 250.127C145.53 247.273 148.041 242.305 151.808 242.362C153.48 242.462 155.113 242.909 156.602 243.675C158.771 244.989 157.915 246.587 156.659 248.472ZM151.523 240.649C152.379 239.679 156.203 235.567 156.716 238.765C157.801 237.509 156.945 236.424 155.518 236.31C153.806 236.138 151.979 238.023 150.781 238.993C148.334 240.783 146.259 243.033 144.674 245.617C142.847 248.586 138.167 255.323 142.276 258.293C146.728 261.49 153.121 255.609 155.917 252.526C157.687 250.584 160.027 247.729 159.342 244.874C158.543 241.334 154.433 240.935 151.523 240.649Z" fill="black"/>
<path fill-rule="evenodd" clip-rule="evenodd" d="M132.688 183.38C130.234 186.235 125.154 190.346 121.045 189.832C117.278 189.375 118.762 185.15 120.075 183.094C122.072 180.011 124.755 177.099 128.693 176.928C130.348 176.87 132.574 176.87 133.83 178.184C135.599 179.897 134.001 181.895 132.688 183.38ZM132.403 175.5C129.492 174.472 128.351 174.13 125.554 175.729C123.274 177.014 121.291 178.765 119.732 180.867C117.392 183.951 115.052 190.859 121.045 191.716C127.551 192.687 143.133 179.211 132.403 175.5Z" fill="black"/>
<path fill-rule="evenodd" clip-rule="evenodd" d="M141.306 193.144C139.456 195.15 137.052 196.561 134.399 197.198C135.541 194.686 138.052 189.147 141.077 188.348C142.447 188.005 144.045 188.462 143.931 190.061C143.874 191.203 142.048 192.402 141.306 193.144ZM143.76 186.464C142.219 185.664 142.675 185.15 140.849 185.778C139.247 186.285 137.742 187.057 136.397 188.062C135.769 188.576 133.714 190.46 134 191.431C134.456 193.144 135.94 190.518 136.34 190.004C137.025 190.575 133.543 195.542 133.315 196.342C132.516 199.368 134.913 199.71 137.31 198.74C140.506 197.312 149.867 189.547 143.76 186.464Z" fill="black"/>
<path fill-rule="evenodd" clip-rule="evenodd" d="M190.106 268.513C190.334 266.515 190.677 264.345 192.503 263.203C194.159 262.176 195.928 262.347 196.156 264.402C196.385 266.344 194.501 269.827 192.96 270.854C190.848 272.396 190.392 270.569 190.106 268.513ZM192.903 273.138C197.298 270.569 200.094 258.693 191.99 262.004C187.309 263.888 189.022 275.365 192.903 273.138Z" fill="black"/>
<path fill-rule="evenodd" clip-rule="evenodd" d="M155.176 223.977C155.861 222.549 156.66 222.093 158.087 221.464C157.174 222.321 156.204 223.177 155.176 223.977ZM156.204 220.437C155.176 221.464 152.893 222.949 153.236 224.719C153.521 226.318 154.72 226.204 155.804 225.69C158.087 224.662 159.343 220.151 161.74 219.752C159.115 218.096 158.487 218.153 156.204 220.437Z" fill="black"/>
<path fill-rule="evenodd" clip-rule="evenodd" d="M156.546 131.137L156.889 145.525C156.946 147.181 156.546 149.636 157.003 151.235C157.231 151.92 159.229 155.003 159.971 155.232C162.482 155.917 161.569 149.636 161.626 148.095C161.683 142.899 161.626 137.646 161.569 132.45C161.569 129.766 162.311 107.212 158.829 107.327C158.202 107.327 156.775 109.896 156.546 110.467C155.862 112.066 156.09 114.521 156.147 116.234C156.147 121.144 156.432 126.112 156.546 131.137Z" fill="black"/>
<path fill-rule="evenodd" clip-rule="evenodd" d="M177.666 145.066C177.837 146.38 177.78 148.607 179.264 149.292C180.577 149.863 181.034 149.177 181.547 148.093C182.689 145.523 182.232 141.641 182.232 139.014C182.175 133.761 181.604 128.565 181.205 123.369C181.034 121.085 181.376 118.801 181.091 116.403C180.976 115.375 180.862 111.15 178.922 111.321C177.152 111.493 177.324 115.946 177.209 117.088C176.41 126.51 176.239 135.588 177.666 145.066Z" fill="black"/>
<path fill-rule="evenodd" clip-rule="evenodd" d="M260.708 254.125C259.966 257.95 247.809 271.197 244.727 263.774C242.901 259.378 246.839 254.582 249.921 252.012C251.805 250.414 254.202 248.872 256.77 249.386C258.996 249.785 261.222 251.727 260.708 254.125ZM254.43 247.273C253.574 247.502 246.382 252.526 246.325 252.469C245.698 251.841 250.207 245.103 250.72 244.475C254.544 239.622 257.113 243.276 259.51 247.102C258.996 244.818 257.569 241.506 255.229 240.536C252.261 239.337 249.921 242.306 248.494 244.475C246.497 247.559 245.355 250.87 244.214 254.296C243.73 255.92 243.04 257.474 242.159 258.921C241.246 260.406 239.705 262.004 239.933 263.832C241.189 263.146 241.874 261.719 242.673 260.577C243.586 260.92 243.243 263.774 243.415 264.517C243.586 265.411 244.029 266.23 244.683 266.863C245.336 267.497 246.169 267.913 247.067 268.057C250.663 268.628 254.544 265.316 256.941 263.089C259.453 260.691 262.192 257.437 262.192 253.782C262.192 250.071 258.425 246.36 254.43 247.273Z" fill="black"/>
<path fill-rule="evenodd" clip-rule="evenodd" d="M264.191 186.007C262.136 189.147 258.598 192.859 254.774 193.601C251.977 194.115 250.151 192.059 251.292 189.319C252.262 186.978 255.459 185.493 257.57 184.465C259.226 183.609 266.988 181.668 264.191 186.007ZM262.65 180.925C258.484 180.754 255.116 183.78 251.977 186.178C252.662 183.438 254.26 180.411 256.486 178.584C259.511 176.129 262.422 177.671 265.618 178.87C264.819 176.357 261.28 175.501 258.997 175.844C256.144 176.3 254.089 178.756 252.662 181.097C250.95 183.894 250.322 187.263 248.324 189.89C247.411 191.089 241.646 195.6 242.959 197.484C245.128 195.2 247.24 192.916 249.409 190.632C249.979 193.316 250.607 196.399 254.032 196.113C256.771 195.885 259.911 193.544 261.908 191.774C264.591 189.49 269.67 181.154 262.65 180.925Z" fill="black"/>
<path fill-rule="evenodd" clip-rule="evenodd" d="M204.262 207.533C202.493 208.332 198.611 209.474 197.641 207.019C196.271 203.65 200.666 197.655 202.778 195.428C204.091 194.058 204.947 193.315 206.773 194.229C208.2 194.971 210.312 196.97 210.883 198.568C212.024 201.88 207.002 206.277 204.262 207.533ZM208.314 191.26C209.741 191.602 209.912 193.43 208.143 192.687C206.773 192.173 206.431 190.803 208.314 191.26ZM210.084 193.829C209.57 192.173 210.654 189.604 207.972 189.49C206.488 189.433 203.748 190.974 202.435 191.545C200.548 192.345 198.981 193.751 197.984 195.542C197.127 197.255 197.755 197.712 199.068 196.284C199.239 196.399 196.043 204.621 195.986 205.477C195.872 209.246 198.554 211.701 202.264 211.073C205.689 210.445 208.828 207.647 210.711 204.792C211.765 203.378 212.398 201.696 212.538 199.939C212.652 197.255 210.883 196.17 210.084 193.829Z" fill="black"/>
<path fill-rule="evenodd" clip-rule="evenodd" d="M226.635 192.459C225.208 189.661 228.576 184.979 231.543 186.349C237.822 189.147 228.518 196.113 226.635 192.459ZM232.228 188.804C231.543 188.804 227.32 190.46 227.948 191.602C228.804 193.087 231.886 189.375 232.228 188.804Z" fill="black"/>
<path fill-rule="evenodd" clip-rule="evenodd" d="M26.4714 183.609C26.3002 182.409 23.6177 184.122 23.6747 184.922C24.0743 184.008 26.8139 186.121 26.4714 183.609Z" fill="black"/>
<path fill-rule="evenodd" clip-rule="evenodd" d="M172.471 93.5648C175.895 93.3364 171.558 76.1499 169.046 77.6916C166.421 79.2903 169.389 93.7932 172.471 93.5648Z" fill="black"/>
<path fill-rule="evenodd" clip-rule="evenodd" d="M178.863 85.5702C182.059 86.027 181.545 78.7184 179.833 77.4052C176.637 74.9499 174.982 84.9992 178.863 85.5702Z" fill="black"/>
</svg>
