<svg width="73" height="72" viewBox="0 0 73 72" fill="none" xmlns="http://www.w3.org/2000/svg">
<circle cx="36.0801" cy="36" r="36" fill="black"/>
<path d="M51.5937 27.9032C51.2204 26.5152 50.126 25.421 48.7381 25.0472C46.2027 24.3535 36.0609 24.3535 36.0609 24.3535C36.0609 24.3535 25.9195 24.3535 23.3841 25.0209C22.023 25.3943 20.9019 26.5154 20.5285 27.9032C19.8613 30.4384 19.8613 35.6961 19.8613 35.6961C19.8613 35.6961 19.8613 40.9803 20.5285 43.489C20.9023 44.8768 21.9963 45.971 23.3843 46.3447C25.9462 47.0387 36.0613 47.0387 36.0613 47.0387C36.0613 47.0387 46.2027 47.0387 48.7381 46.3712C50.1262 45.9977 51.2204 44.9035 51.5941 43.5157C52.2611 40.9803 52.2611 35.7228 52.2611 35.7228C52.2611 35.7228 52.2878 30.4384 51.5937 27.9032ZM32.832 40.5533V30.8389L41.2654 35.6961L32.832 40.5533Z" fill="white"/>
</svg>
