<svg width="662" height="497" viewBox="0 0 662 497" fill="none" xmlns="http://www.w3.org/2000/svg">
<path d="M570.277 321.752L561.504 346.503V354.486L581.444 363.269L589.42 356.083L595.8 334.527V326.543L602.979 319.357L612.55 303.389L621.323 274.647L622.918 257.881L615.74 259.478L600.586 284.228L570.277 321.752Z" fill="#FFE7D1"/>
<path d="M346.951 448.697L352.534 419.156L369.284 422.35H388.426L394.807 428.737L451.436 460.673L443.46 467.858L422.722 472.649L372.474 451.89L370.879 454.286L346.951 448.697Z" fill="#FFE7D1"/>
<path fill-rule="evenodd" clip-rule="evenodd" d="M184.379 294.514C187.397 292.455 193.57 285.085 196.803 283.381C203.994 279.593 236.029 272.147 237.07 271.707C238.657 271.037 248.962 268.696 254.966 267.217C269.066 263.744 319.593 241.309 332.91 235.557C334.611 240.035 348.646 259.804 346.238 261.83C338.311 268.5 324.102 276.805 314.919 281.585C307.492 285.451 299.626 288.65 291.684 291.262C282.668 294.228 276.48 297.408 267.494 300.443C258.653 303.427 269.218 312.764 273.759 314.693C278.851 316.857 286.739 317.955 291.942 319.831C282.781 334.083 275.087 351.382 273.548 368.455C273.178 372.564 270.049 376.331 264.959 375.101C262.333 374.466 238.1 371.235 234.149 370.334C207.77 364.312 160.416 332.778 172.61 300.443C175.404 301.734 181.782 296.286 184.379 294.514Z" fill="#FFE7D1"/>
<path fill-rule="evenodd" clip-rule="evenodd" d="M199.138 122.956C201.108 122.789 206.203 118.849 203.53 116.856C200.833 114.845 198.894 121.584 199.138 122.956ZM96.4852 138.068C97.0002 137.977 96.7754 135.155 95.9644 134.795C93.4047 133.657 93.1885 137.933 93.126 139.077C93.0482 140.521 92.8675 144.588 95.9798 143.473C97.7468 142.84 96.6505 139.151 96.4852 138.068ZM247.604 151.25C247.535 153.769 252.618 158.612 254.513 155.707C256.107 153.266 247.735 146.237 247.604 151.25ZM67.8813 94.4458C69.3542 98.2064 76.6379 93.0811 76.9085 90.3225C77.4644 84.6731 67.8053 90.687 67.8813 94.4458ZM128.65 110.66C132.042 110.381 136.506 106.064 139.777 104.452C141.99 103.36 148.013 102.06 148.668 99.5819C149.239 97.4289 139.019 102.037 138.147 102.446C134.138 104.327 130.523 106.47 128.65 110.66ZM383.299 80.8919C386.002 78.7993 389.289 77.4494 392.755 77.5378C394.486 77.582 398.097 78.6659 398.232 75.6698C398.453 70.7977 383.168 76.7395 380.779 77.6952C381.619 78.7613 382.46 79.8266 383.299 80.8919ZM214.633 270.753C212.649 267.456 209.082 265.55 206.399 262.737C207.382 267.356 205.166 271.463 203.643 275.68C207.306 274.037 210.969 272.395 214.633 270.753ZM559.083 341.04C560.176 337.379 561.271 333.737 562.549 330.131C563.979 326.093 564.69 325.744 561.267 322.921C558.427 328.295 555.585 333.67 552.744 339.046C554.767 339.906 556.877 340.744 559.083 341.04ZM265.059 75.9509C261.297 71.7069 243.669 71.4404 245.85 80.8073C246.611 84.0781 250.945 80.6035 253.66 79.8411C256.355 79.0841 263.985 78.9835 265.059 75.9509ZM264.412 136.038C263.956 134.954 263.046 131.045 261.695 130.737C260.378 130.437 255.185 134.537 254.208 135.163C249.339 138.287 244.591 141.647 239.846 144.958C241.663 144.958 243.313 144.311 245.119 144.297C247.265 144.278 248.805 145.161 250.897 144.657C255.393 143.577 260.612 138.59 264.412 136.038ZM269.284 39.1972C269.707 37.2559 291.747 43.0833 294.395 44.1503C295.838 44.7307 303.284 48.605 301.684 42.7658C300.774 39.44 292.169 36.9048 289.412 35.9933C282.402 33.6773 275.012 32.0298 267.548 32.4119C266.098 32.4856 255.122 33.1196 259.706 37.5361C261.285 39.0571 266.946 38.5777 269.284 39.1972ZM274.109 305.909C278.216 307.932 282.408 309.479 286.7 311.06C288.607 311.762 291.577 313.602 293.68 313.14C295.403 312.761 295.955 310.135 296.86 308.377C300.169 301.945 304.12 296.757 309.02 291.455C306.745 289.794 295.197 297.12 292.34 298.202C289.479 299.284 286.78 300.374 283.981 301.668C281.345 302.886 276.143 303.975 274.109 305.909ZM346.815 251.089C352.8 248.378 358.472 243.571 363.38 239.267C369.016 234.325 374.068 229.146 378.193 222.751C375.711 222.878 370.229 230.871 370.168 222.169C370.137 217.729 376.215 213.357 378.101 209.239C373.408 206.587 369.108 222.433 363.723 218.592C358.537 214.891 366.721 202.166 368.297 198.151C365.255 196.125 347.921 218.805 345.412 221.707C343.843 223.523 340.132 225.942 339.247 228.061C338.72 229.322 338.644 233.324 338.899 234.485C339.43 236.911 342.118 239.817 343.316 242.076C344.831 244.936 346.151 247.909 346.815 251.089ZM594.22 332.855C589.045 325.543 594.39 322.355 598.598 316.285C601.964 311.431 605.06 306.079 607.193 300.658C612.529 287.098 617.343 274.492 619.979 260.148C616.352 261.806 614.085 268.112 612.271 271.435C609.831 275.903 607.685 280.592 604.974 284.921C599.901 293.021 594.919 301.661 588.466 308.682C585.541 311.863 583.066 315.443 579.692 318.31C578.151 319.619 575.202 320.695 574.067 322.332C572.995 323.878 574.193 324.867 573.786 326.714C573.369 328.608 571.454 330.628 570.632 332.453C569.553 334.85 568.548 337.251 567.344 339.595C566.03 342.15 565.671 343.486 565.317 345.984C564.93 348.715 566.117 348.998 563.734 351.515C568.051 353.42 572.368 355.325 576.685 357.231C578.142 357.874 579.599 358.517 581.056 359.16C581.363 358.584 581.67 358.008 581.977 357.431C583.164 356.278 584.255 353.433 584.933 351.91C587.77 345.552 590.973 339.169 594.22 332.855ZM177.344 302.16C165.086 334.464 208.161 361.664 234.676 367.68C238.349 368.513 241.933 369.604 245.589 370.499C249.575 371.474 253.115 371.28 257.094 371.688C260.259 372.012 261.768 374.461 264.751 375.135C269.735 376.262 269.43 372.513 269.787 368.495C271.301 351.459 279.986 335.022 289.179 320.808C284.98 319.304 280.819 317.663 276.674 316.016C273.127 314.607 267.695 310.645 263.882 310.435C261.062 310.281 256.764 312.692 254.025 313.75C249.463 315.512 244.888 317.013 240.134 318.214C231.82 320.316 222.569 323.18 213.966 323.397C211.486 323.46 204.682 324.616 202.897 323.082C199.494 320.156 204.218 317.717 207.067 316.673C224.047 310.449 242.075 307.803 259.103 301.422C267.865 298.137 276.537 294.47 285.355 291.234C292.955 288.446 300.917 285.977 308.262 282.546C317.962 278.018 327.704 272.376 336.104 265.729C337.785 264.4 341.308 262.424 342.46 260.497C343.475 258.8 343.348 260.492 343.137 258.435C342.986 256.957 341.18 254.955 340.437 253.558C337.669 248.354 335.167 243.007 333.064 237.499C319.665 243.252 306.918 251.082 293.715 257.23C280.428 263.418 265.439 267.784 251.224 271.265C245.173 272.748 238.218 273.216 232.669 276.145C230.311 277.388 227.98 278.827 225.455 279.547C224.71 280.979 223.975 281.26 223.252 280.389C222.799 279.88 222.213 279.665 221.494 279.743C219.95 280.005 218.375 280.736 216.93 281.297C209.619 284.134 202.619 287.687 195.677 291.312C192.388 293.029 189.013 294.72 185.865 296.682C184.177 297.733 182.665 298.794 181.284 300.237C179.629 301.968 180.023 303.391 177.344 302.16ZM453.173 110.356C456.27 110.406 459.094 108.727 462.324 108.82C467.404 108.967 471.425 112.91 474.373 116.711C480.207 124.234 478.719 133.309 475.788 141.727C474.386 145.751 472.461 149.612 470.056 153.134C467.926 156.252 464.12 159.201 462.633 162.673C460.182 168.398 465.127 165.963 468.155 164.74C471.962 163.202 475.531 161.289 478.762 158.713C493.164 147.232 504.12 131.273 507.789 112.945C509.58 104.003 509.441 93.5487 503.218 86.2501C497.53 79.5765 487.709 77.3959 479.314 78.6332C470.239 79.9719 462.014 83.8193 454.625 88.7723C452.479 90.2114 450.513 91.7823 448.498 93.3918C445.854 95.5033 444.27 95.5589 444.931 98.8684C445.423 101.329 446.761 103.878 447.624 106.239C449.239 110.661 448.65 111.805 453.173 110.356ZM463.049 186.589L462.422 187.661C466.743 187.868 470.767 184.052 474.449 182.189C479.232 179.768 483.478 176.466 487.669 173.131C495.06 167.249 502.548 160.621 508.049 152.9C520.382 135.59 531.584 113.646 528.219 91.6999C524.592 68.0475 503.925 58.9429 481.903 62.074C471.979 63.4849 463.119 67.9201 454.238 72.4226C449.761 74.6927 445.983 77.6372 441.881 80.4876C439.753 81.9675 437.811 82.1595 437.672 84.747C437.568 86.6969 440.935 91.1061 441.845 92.8731C452.997 81.4859 465.014 72.0656 481.854 71.4835C501.889 70.7911 513.736 89.8065 513.648 108.016C513.562 125.873 505.868 143.051 493.602 155.885C488.027 161.717 482.713 166.397 475.868 170.654C472.456 172.776 469.939 174.681 466.124 176.09C463.425 177.088 463.707 176.562 463.018 179.063C462.433 181.185 463.031 184.386 463.049 186.589ZM354.186 429.207C353.926 432.425 353.272 435.593 352.545 438.732C352.284 439.859 350.813 443.418 351.071 444.685C351.497 446.78 350.93 445.433 352.764 446.526C354.676 447.667 356.902 447.597 358.997 447.944C360.289 448.158 365.025 450.389 365.821 450.037C367.213 449.421 367.169 447.249 368.697 446.388C370.778 445.215 373.846 446.22 375.81 447.138C381.059 449.589 384.666 454.663 389.746 457.441C398.767 462.372 409.471 465.103 419.535 466.229C424.987 466.84 430.567 467.91 435.951 466.632C440.194 465.624 445.707 465.717 448.014 461.16C427.519 455.519 396.239 448.615 388.135 425.072C383.73 429.07 376.369 426.917 371.045 426.365C365.189 425.758 359.956 425.899 354.6 423.227C354.208 425.327 354.088 427.071 354.186 429.207ZM172.731 283.395C182.378 283.979 191.525 279.409 197.462 271.698C198.923 269.799 200.421 267.86 201.299 265.61C201.489 265.04 201.679 264.469 201.869 263.899C202.79 262.325 202.387 261.582 200.66 261.67C199.687 260.335 197.22 259.886 197.922 257.465C198.451 255.638 200.401 255.609 202.096 255.034C201.252 253.615 200.747 252.902 199.538 251.639C196.398 254.467 190.7 260.017 188.493 253.52C187.433 250.402 189.299 247.421 188.837 244.413C188.646 243.169 187.071 239.991 186.158 239.247C181.294 235.284 174.289 236.924 169.129 239.257C165.573 240.865 164.808 241.62 164.228 245.306C163.638 249.054 163.092 252.801 162.438 256.538C164.572 255.425 164.961 253.02 166.352 251.289C166.874 252.239 167.395 253.19 167.918 254.14C168.652 253.727 169.339 253.749 169.975 254.206C171.005 255.791 170.357 258.141 170.04 259.802C173.474 259.482 174.926 263.317 171.464 264.87C167.877 266.479 166.26 262.092 166.139 259.251C164.8 260.851 163.426 259.995 162.493 260.817C161.561 261.639 161.194 263.352 160.862 265.228C160.318 268.31 158.923 272.757 160.213 275.85C162.129 280.442 168.236 282.832 172.731 283.395ZM452.288 135.882C449.095 140.326 443.653 146.143 442.515 151.512C446.031 149.447 453.464 139.509 455.38 147.425C456.479 151.969 450.84 157.384 449.455 161.784C455 159.958 458.95 154.238 462.41 149.824C466.821 144.196 471.325 136.777 472.451 129.621C473.362 123.829 469.348 118.432 463.385 117.864C460.339 117.574 457.159 118.058 454.216 118.765C452.874 119.087 450.872 119.487 449.674 120.207C448.17 121.11 447.965 123.227 446.548 121.466C444.666 125.017 442.784 128.568 440.902 132.118C442.775 131.438 446.597 128.55 448.644 128.849C451.633 129.285 452.247 133.631 452.288 135.882ZM153.399 48.9522C145.029 49.1991 136.282 50.983 128.359 53.6349C126.392 54.2939 118.092 56.638 119.84 60.0361C120.995 62.2821 127.224 59.1083 129.107 58.579C137.178 56.3103 145.488 54.8141 153.754 53.4487C155.756 53.1183 162.546 53.151 162.897 50.5246C163.326 47.3199 155.762 48.9485 153.399 48.9522ZM381.163 414.468C376.627 415.023 372.271 414.816 367.731 414.259C363.91 413.791 360.018 412.225 356.216 412.225C356.216 416.299 355.941 416.325 360.234 417.197C363.231 417.805 366.271 418.147 369.3 418.572C374.633 419.318 380.553 421.413 385.951 420.336C385.82 419.629 385.407 414.855 384.847 414.383C384.532 414.118 381.621 414.473 381.163 414.468ZM307.85 113.04C309.118 113.849 312.034 117.075 313.545 117.132C313.005 113.397 308.843 106.894 304.063 109.202C302.892 109.768 300.431 112.586 301.544 113.829C302.138 114.494 306.295 113.044 307.85 113.04ZM263.624 146.263C263.671 145.613 263.718 144.962 263.766 144.311C262.012 145.344 259.84 145.832 258.594 147.495C260.09 148.159 261.585 148.824 263.082 149.488C263.263 148.413 263.444 147.338 263.624 146.263ZM401.763 245.417C410.05 248.322 417.648 252.202 423.747 258.788C429.02 264.483 431.498 274.518 432.785 281.983C435.97 300.456 429.825 317.578 425.772 335.251C423.717 344.215 420.648 352.842 417.774 361.575C415.265 369.201 413.114 377.187 409.65 384.438C406.714 390.587 402.962 396.649 400.379 403.027C398.989 406.46 396.736 418.239 391.46 414.539C390.02 418.308 389.67 417.987 391.209 420.604C392.323 422.499 396.102 425.13 397.885 426.673C402.637 430.787 408.656 434.176 414.231 437.056C424.441 442.331 435.387 446.277 445.902 451.086C450.55 453.214 455.591 455.727 454.548 461.815C453.674 466.918 450.724 470.788 446.123 473.058C441.804 475.191 435.625 476.837 430.873 477.505C428.054 477.902 427.407 476.728 425.109 476.322C422.55 475.871 419.565 476.743 416.926 476.721C405.078 476.617 394.705 473.633 385.131 466.756C381.71 464.298 376.673 457.631 372.196 457.632C369.907 457.632 370.39 459.024 368.377 459.841C365.892 460.848 361.612 458.947 359.169 458.5C353.966 457.55 348.674 456.584 345.209 452.097C341.462 447.249 342.794 441.243 344.404 435.859C346.219 429.789 349.272 423.632 350.57 417.47C350.886 415.972 351.177 413.178 350.856 411.653C350.357 409.287 347.971 407.876 347.899 405.314C347.877 404.535 348.991 403.507 349.186 402.703C349.616 400.936 349.549 399.103 349.726 397.305C350.042 394.098 350.773 391.025 351.277 387.856C352.423 380.644 354.682 374.21 356.87 367.261C358.991 360.517 361.011 355.497 365.114 349.658C367.237 346.633 374.342 335.858 370.872 332.757C366.124 342.094 360.571 349.376 353.304 356.808C347.745 362.494 342.311 370.137 335.355 374.186C327.706 378.638 318.359 381.257 309.913 383.612C305.895 384.73 302.562 387.213 298.231 387.672C293.538 388.169 288.761 387.583 284.164 386.535C282.87 386.241 279.138 384.251 277.967 384.377C276.242 384.565 273.761 387.642 271.868 388.208C267.261 389.583 264.115 386.955 260.62 384.526C256.827 381.89 255.679 381.235 251.303 380.918C245.942 380.53 240.728 378.638 235.456 377.48C226.185 375.444 218.306 371.318 209.879 366.999C200.22 362.049 191.958 355.221 184.677 347.157C173.974 335.301 159.069 302.448 176.553 290.945C166.26 289.546 156.833 285.047 155.579 273.385C154.924 267.284 156.157 260.525 157.69 254.643C158.39 251.957 159.224 249.289 160.023 246.631C160.625 245.733 160.943 244.751 160.977 243.683C161.346 242.301 160.813 241.611 159.379 241.618C156.668 238.445 154.63 235.644 154.082 231.139C153.91 229.711 153.755 227.522 154.77 226.308C155.24 225.821 155.806 225.494 156.468 225.331C158.056 225.422 158.505 224.638 157.815 222.981C158.586 220.633 157.442 218.804 160.349 217.824C161.281 218.022 162.209 218.24 163.133 218.474C164.312 219.012 165.078 218.622 165.435 217.308C168.174 216.235 166.91 214.649 170.631 216.029C172.883 216.865 175.026 218.303 176.666 220.056C178.723 218.734 174.045 210.563 173.888 207.957C173.518 201.813 176.056 196.732 179.358 191.685C185.775 181.878 194.733 173.444 203.567 165.856C220.487 151.324 238.262 137.489 257.367 125.911C249.485 120.432 240.278 118.947 230.899 121.493C222.254 123.841 215.246 128.105 207.288 131.835C199.915 135.288 192.09 136.707 189.739 127.282C187.105 116.724 195.508 112.804 203.046 108.07C201.164 106.665 194.968 107.669 192.624 107.836C187.404 108.205 182.413 109.385 177.34 110.428C174.907 110.927 172.672 110.815 170.262 111.305C166.68 112.033 162.939 112.848 159.314 113.885C150.69 116.355 142.129 120.101 134.677 125.15C128.236 129.512 123.768 135.67 118.579 141.343C112.66 147.811 106.99 154.174 98.216 156.542C94.1079 157.65 89.2885 158.657 86.3756 154.984C83.6656 151.568 83.5147 147.452 83.6036 143.276C83.7994 134.051 88.2514 124.083 93.4299 116.545C99.0511 108.363 106.58 103.677 113.693 97.0908C103.412 97.8267 93.4748 103.252 84.0194 107.002C82.0295 107.791 80.0208 108.678 78.0201 109.409C75.8866 110.188 74.4732 109.711 72.4295 110.067C67.7646 110.882 63.7579 112.85 59.2206 109.713C50.6361 103.778 59.2367 91.7041 65.1471 87.9994C73.3795 82.84 81.7547 78.4956 90.824 74.8152C85.914 69.4842 90.1075 61.8763 94.6332 58.0943C100.359 53.3087 107.651 50.5664 114.551 48.0047C120.008 45.9784 125.366 44.0331 131.035 42.8138C136.994 41.5325 143.962 39.5746 150.009 39.7624C155.68 39.9385 160.708 38.9384 166.451 38.7785C171.23 38.6455 176.02 38.7605 180.798 38.6365C193.654 38.3041 206.558 39.172 219.122 40.0975C209.167 10.958 274.738 19.9568 288.728 23.763C301.441 27.2224 316.007 31.2353 326.686 39.4434C331.21 42.9198 335.506 46.8725 339.52 50.9285C345.442 56.9127 348.721 64.7498 351.853 72.4853C359.798 68.5892 367.395 64.3436 376.088 62.4118C384.36 60.5743 392.833 58.0835 401.153 56.6953C407.479 55.6395 416.661 54.9234 421.985 59.3945C427.767 64.2511 430.779 71.8087 434.231 78.2808C450.807 62.5367 469.296 51.0507 492.929 51.8144C516.055 52.562 531.263 72.5527 534.066 94.2155C537.154 118.085 526.532 143.028 512.134 161.512C505.677 169.802 498.997 177.808 490.306 183.993C485.997 187.059 481.451 190.417 476.726 192.811C474.369 194.004 471.793 195.083 469.319 196.001C468.203 196.415 467.054 196.831 465.893 197.112C462.577 197.917 463.221 196.843 461.988 199.748C460.988 202.106 461.111 206.164 460.683 208.753C460.193 211.712 459.902 214.711 459.188 217.629C457.949 222.688 456.66 227.623 455.109 232.563C452.173 241.912 448.222 251.335 443.382 259.863C447.486 261.648 453.234 261.828 457.621 262.369C462.368 262.953 467.122 264.183 472.054 265.563C481.935 268.329 490.764 270.663 500.16 274.803C509.915 279.102 518.609 285.52 528.001 290.628C536.639 295.326 545.37 301.21 553.391 306.849C555.299 308.19 556.481 309.357 558 311.056C559.555 312.792 560.049 313.131 561.906 314.635C562.744 315.313 565.179 318.733 566.136 318.859C567.848 319.086 567.585 317.806 568.929 316.02C571.736 312.291 575.651 309.402 578.439 305.579C580.763 302.391 583.188 299.163 585.672 296.421C591.686 289.786 596.669 282.433 600.944 274.479C603.169 270.339 605.512 266.398 607.928 262.49C610.334 258.599 614.611 253.464 619.401 253.694C619.016 251.713 617.792 251.383 619.904 250.172C621.265 249.391 623.913 250.649 624.962 251.441C627.736 253.54 627.859 257.613 627.684 260.671C627.233 268.554 625.586 276.335 623.289 283.789C620.528 292.749 617.069 300.654 613.293 309.206C610.286 316.018 606.554 325.027 599.073 328.136C604.097 335.316 601.684 341.167 598.326 348.791C595.872 354.363 592.631 360.122 587.694 363.81C582.128 367.967 576.092 364.44 570.272 361.693C566.756 360.032 556.006 356.116 558.192 351.007C555.507 350.649 553.818 348.696 551.373 348.095C548.785 347.459 549.23 348.511 546.492 348.906C544.393 349.208 541.253 347.326 539.276 346.652C535.974 345.528 532.682 344.375 529.385 343.239C520.105 340.039 510.981 336.889 501.609 334.325C484.171 329.556 466.519 326.85 449.142 322.591C445.659 321.738 442.196 320.914 438.569 320.23C437.82 320.089 433.935 319.872 433.462 319.07C432.635 317.664 435.177 309.794 435.396 308.19C436.828 297.663 436.36 286.138 434.342 275.731C433.504 271.404 429.762 265.802 429.794 261.579C429.817 258.746 432.325 255.652 433.797 253.086C437.439 246.74 441.256 239.884 443.954 233.281C448.085 223.18 450.615 211.777 452.44 200.958C453.39 195.318 454.496 189.203 454.755 183.498C454.952 179.149 454.596 174.587 455.226 170.133C452.821 170.361 449.419 171.608 447.253 170.273C444.518 168.588 443.783 163.778 444.133 160.906C434.768 162.542 435.079 153.652 435.659 146.7C418.733 146.7 440.409 121.524 443.117 116.117C444.362 113.632 444.325 116.424 443.775 112.58C443.534 110.89 442.38 109.017 441.727 107.464C440.305 104.072 438.766 100.732 437.124 97.4412C433.654 90.4911 429.722 83.7754 425.432 77.3005C421.57 79.9944 418.088 83.1833 414.863 86.6049C416.932 81.1885 423.253 74.4782 420.55 68.3278C418.043 62.6265 409.674 63.0219 404.73 64.0642C391.299 66.8991 378.417 71.0279 365.621 75.8081C369.585 78.0832 375.653 76.3256 379.591 74.5861C384.468 72.4314 389.712 70.1706 394.968 69.0295C399.552 68.0339 405.572 68.3736 404.247 74.5537C403.173 79.5613 398.28 84.3837 395.052 88.1279C387.939 96.3774 379.019 102.763 370.258 109.144C360.84 116.003 351.766 123.456 342.228 130.116C324.989 142.156 306.452 152.62 288.64 163.859C279.384 169.699 268.896 174.398 258.859 178.726C247.817 183.488 237.23 188.585 225.774 192.346C219.412 194.435 213.106 196.154 206.855 198.53C202.936 200.019 196.113 203.003 193.524 198.581C188.265 189.601 207.294 177.789 212.508 172.298C216.106 175.795 198.366 188.827 199.755 193.919C200.846 197.92 205.065 192.753 207.103 191.663C210.395 189.9 214.295 189.014 217.604 187.003C224.392 182.878 232.439 178.121 233.989 169.594C232.911 168.454 232.924 167.403 234.03 166.439C234.522 165.853 234.912 165.21 235.2 164.508C235.683 163.168 235.877 161.49 236.135 160.069C236.899 155.869 234.981 151.937 236.774 147.828C226.313 155.762 216.258 164.724 206.329 173.313C197.422 181.017 188.128 191.105 184.855 202.601C184.436 204.073 183.739 205.745 183.815 207.299C183.964 210.35 184.269 209.693 186.725 210.674C189.181 211.655 192.758 211.571 195.4 211.675C196.906 211.733 203.63 210.137 202.293 213.445C201.523 215.352 196.861 215.28 195.191 215.456C191.002 215.899 188.731 215.444 190.715 219.99C191.605 222.027 193.407 223.407 194.821 224.984C198.756 229.371 200.893 236.099 203.989 241.253C207.516 247.124 211.392 252.707 215.511 258.176C217.211 260.432 219.483 264.672 221.839 266.283C224.039 267.786 221.45 267.662 225.105 267.051C226.698 266.786 228.142 265.748 229.666 265.377C238.776 263.155 248.141 260.651 257.563 257.908C269.615 254.4 282.262 251.409 293.761 246.357C304.061 241.831 314.285 236.442 324.693 231.858C327.733 230.52 330.769 229.633 333.131 227.17C335.983 224.199 338.344 220.308 340.974 217.114C345.447 211.68 349.569 206.153 354.384 201.004C357.968 197.173 364.319 190.05 369.375 188.52C378.983 185.616 373.84 200.263 372.598 203.965C374.856 204.478 376.044 201.579 378.694 202.413C381.868 203.412 382.196 207.637 382.593 210.284C382.698 210.989 381.745 212.307 382.035 212.936C382.133 213.151 384.204 214.377 384.604 214.945C386.054 217.009 385.768 219.518 385.219 221.744C382.376 233.272 372.27 241.69 364.838 250.194C368.163 249.564 370.628 247.668 373.766 246.728C376.713 245.845 379.674 245.891 382.644 245.639C385.752 245.374 388.739 244.209 391.919 244.15C395.257 244.088 398.453 245.039 401.763 245.417Z" fill="black"/>
<path fill-rule="evenodd" clip-rule="evenodd" d="M50.2559 141.723C48.4231 142.922 47.9065 144.098 47.8432 146.865C47.8179 148 47.8961 152.232 49.4802 152.072C50.9668 151.923 50.2559 143.178 50.2559 141.723ZM40.7883 148.617C41.6423 139.75 44.8829 130.735 52.5061 125.21C54.3914 123.844 56.5241 123.893 58.5903 123.031C59.8321 122.513 61.794 120.106 63.2038 120.391C68.3933 121.441 62.3978 128.344 61.5198 130.16C58.799 135.785 58.9827 140.728 59.0639 146.797C59.1258 151.409 60.0832 159.184 57.7603 163.359C55.2842 167.804 49.9136 164.917 46.9159 162.286C43.1324 158.965 40.2749 153.676 40.7883 148.617Z" fill="black"/>
<path fill-rule="evenodd" clip-rule="evenodd" d="M131.889 174.818C131.889 179.766 135.901 176.416 135.758 172.897C135.548 167.716 131.702 170.906 131.889 174.818ZM153.217 147.467C148.826 151.419 145.439 153.637 144.593 159.715C143.952 164.319 144.589 168.879 144.616 173.516C144.662 181.289 138.392 189.462 131.643 180.551C126.721 174.052 128.487 163.832 132.5 157.3C134.607 153.873 137.614 150.483 141.087 148.347C143.7 146.74 151.049 143.578 153.217 147.467Z" fill="black"/>
<path fill-rule="evenodd" clip-rule="evenodd" d="M91.8991 267.266C91.3898 268.472 90.195 273.394 92.633 272.281C94.7855 271.297 93.391 268.035 91.8991 267.266ZM79.0162 252.07C78.6398 250.219 78.7932 238.616 81.9859 239.486C84.4938 240.168 84.9081 246.107 85.9297 248.175C89.7343 255.872 98.4663 260.666 101.478 268.611C104.839 277.483 94.6768 277.758 89.2847 274.165C82.9001 269.911 79.2057 259.494 79.0162 252.07Z" fill="black"/>
<path fill-rule="evenodd" clip-rule="evenodd" d="M71.1891 204.494C72.5747 202.621 72.7149 201.621 71.925 199.964C70.9153 201.064 71.0946 202.635 71.1891 204.494ZM72.1917 212.872C64.9682 213.681 64.6066 200.355 65.8438 195.78C66.8288 192.137 68.9468 188.221 71.127 185.252C71.5674 184.653 75.7439 179.269 76.5626 179.256C79.7041 179.207 78.8408 182.76 78.502 184.083C77.4346 188.25 77.0117 191.733 77.2989 196.354C77.6071 201.298 79.9458 213.036 72.1917 212.872Z" fill="black"/>
<path fill-rule="evenodd" clip-rule="evenodd" d="M400.174 97.4703C389.845 106.141 380.039 115.528 368.808 123.113C363.312 126.825 357.567 130.109 352.083 133.881C349.29 135.802 346.44 137.522 343.341 138.934C340.604 140.182 338.814 140.344 341.086 137.383C342.604 135.405 346.006 134.026 348.074 132.62C351.256 130.454 354.262 128.052 357.609 126.13C363.511 122.741 369.376 120.006 374.816 115.849C379.644 112.162 384.625 108.561 389.234 104.641C391.209 102.961 397.762 95.2442 400.174 97.4703Z" fill="black"/>
<path fill-rule="evenodd" clip-rule="evenodd" d="M400.383 128.779C405.028 132.757 393.406 143.653 390.755 146.123C387.96 148.727 384.882 151.05 381.843 153.358C380.773 154.17 374.935 159.608 373.453 159.169C370.53 158.303 374.368 154.775 375.366 153.855C378.594 150.876 381.891 147.984 385.047 144.925C387.894 142.168 390.976 139.615 393.729 136.769C395.959 134.463 397.832 130.556 400.383 128.779Z" fill="black"/>
<path fill-rule="evenodd" clip-rule="evenodd" d="M56.2441 289.113C55.0313 286.299 52.8593 289.422 53.9604 290.827C55.0019 292.157 56.089 289.653 56.2441 289.113ZM49.1328 283.557C49.783 279.421 51.2856 277.122 55.1622 280.653C57.8261 283.079 63.1836 289.978 62.6752 293.739C62.0079 298.672 56.5799 297.272 53.7661 294.693C50.8819 292.049 49.6087 287.225 49.1328 283.557Z" fill="black"/>
<path fill-rule="evenodd" clip-rule="evenodd" d="M57.6275 364.969C52.8786 364.607 48.8271 360.957 46.8104 356.68C45.1135 353.083 43.5075 347.286 49.4688 349.176C53.354 350.409 68.3315 365.549 57.6275 364.969Z" fill="black"/>
<path fill-rule="evenodd" clip-rule="evenodd" d="M115.18 341.52C111.51 342.356 107.88 339.936 105.623 337.208C104.219 335.509 100.951 329.552 102.597 327.1C104.893 323.68 108.358 330.554 109.553 331.915C111.428 334.046 117.559 338.122 115.18 341.52Z" fill="black"/>
<path fill-rule="evenodd" clip-rule="evenodd" d="M118.485 248.501C115.609 247.165 112.938 245.556 111.781 242.364C111.045 240.331 110.428 234.236 113.695 234.264C117.474 234.297 126.128 247.89 118.485 248.501Z" fill="black"/>
<path fill-rule="evenodd" clip-rule="evenodd" d="M98.3167 185.082C102.169 185.012 103.081 187.139 103.616 190.194C103.98 192.267 105.744 199.306 103.912 200.748C101.294 202.808 97.1287 198.087 96.2867 196.234C94.5513 192.419 96.9507 188.666 98.3167 185.082Z" fill="black"/>
<path fill-rule="evenodd" clip-rule="evenodd" d="M164.503 396.136C166.379 396.99 170.645 398.885 169.015 401.824C167.31 404.898 162.416 401.91 160.588 400.567C159.822 400.005 154.959 396.324 155.162 395.09C155.591 392.466 162.295 395.89 164.503 396.136Z" fill="black"/>
<path fill-rule="evenodd" clip-rule="evenodd" d="M40.9395 204.177C42.2211 207.39 43.6638 218.426 36.915 212.466C34.8554 210.647 34.5446 208.376 35.2542 205.878C36.2803 202.259 37.7734 202.977 40.9395 204.177Z" fill="black"/>
<path fill-rule="evenodd" clip-rule="evenodd" d="M398.582 163.077C397.087 160.021 400.777 158.05 402.749 156.08C404.036 154.793 409.449 147.815 411.224 148.209C414.874 149.021 400.377 161.714 398.582 163.077Z" fill="black"/>
<path fill-rule="evenodd" clip-rule="evenodd" d="M98.2682 384.454C101.79 383.888 102.611 387.804 104.88 389.51C105.853 390.243 109.193 390.886 108.521 392.44C106.756 396.521 98.0956 387.198 98.2682 384.454Z" fill="black"/>
<path fill-rule="evenodd" clip-rule="evenodd" d="M128.004 291.982C130.424 290.967 137.41 296.416 135.404 298.769C132.406 302.29 128.175 293.908 128.004 291.982Z" fill="black"/>
<path fill-rule="evenodd" clip-rule="evenodd" d="M179.023 370.799C177.258 370.975 169.813 368.632 172.571 365.495C174.508 363.292 179.656 368.805 179.023 370.799Z" fill="black"/>
<path fill-rule="evenodd" clip-rule="evenodd" d="M89.8613 355.749C88.1097 356.45 81.7924 355.007 83.7786 352.261C85.6707 349.647 89.8639 353.578 89.8613 355.749Z" fill="black"/>
<path fill-rule="evenodd" clip-rule="evenodd" d="M141.58 367.596C143.628 367.383 145.107 368.619 145.459 370.712C142.898 371.078 142.108 370.468 141.58 367.596Z" fill="black"/>
<path fill-rule="evenodd" clip-rule="evenodd" d="M407.932 63.7363C408.797 63.7402 409.661 63.7447 410.518 63.7486C409.651 63.7441 408.792 63.7402 407.932 63.7363Z" fill="black"/>
<path fill-rule="evenodd" clip-rule="evenodd" d="M394.355 243.967C393.062 243.968 391.769 243.971 390.477 243.972C391.77 243.969 393.063 243.968 394.355 243.967Z" fill="black"/>
<path fill-rule="evenodd" clip-rule="evenodd" d="M217.955 33.0039C217.896 34.2997 217.836 35.5954 217.775 36.8867C217.834 35.5898 217.894 34.2963 217.955 33.0039Z" fill="black"/>
<path fill-rule="evenodd" clip-rule="evenodd" d="M618.56 253.029C618.973 254.469 618.369 254.708 616.746 253.745C617.35 253.506 617.955 253.268 618.56 253.029Z" fill="black"/>
<path fill-rule="evenodd" clip-rule="evenodd" d="M581.836 365.949C582.485 365.953 583.134 365.958 583.775 365.962C583.125 365.958 582.48 365.953 581.836 365.949Z" fill="black"/>
<path fill-rule="evenodd" clip-rule="evenodd" d="M459.004 261.782C457.92 262.609 456.841 262.726 455.771 261.738C456.849 261.754 457.926 261.768 459.004 261.782Z" fill="black"/>
<path fill-rule="evenodd" clip-rule="evenodd" d="M434.802 151.43C434.775 152.51 434.747 153.589 434.719 154.665C434.746 153.584 434.774 152.507 434.802 151.43Z" fill="black"/>
<path fill-rule="evenodd" clip-rule="evenodd" d="M490.682 51.5768C489.604 51.5762 488.526 51.5749 487.449 51.5736C488.528 51.1698 489.605 51.3024 490.682 51.5768Z" fill="black"/>
<path fill-rule="evenodd" clip-rule="evenodd" d="M201.057 38.6146C200.195 38.5414 199.332 38.4677 198.471 38.3945C199.332 38.4677 200.194 38.5414 201.057 38.6146Z" fill="black"/>
<path fill-rule="evenodd" clip-rule="evenodd" d="M215.279 39.6406C214.418 39.9623 213.556 40.1525 212.693 39.6452C213.556 39.6439 214.418 39.6419 215.279 39.6406Z" fill="black"/>
<path fill-rule="evenodd" clip-rule="evenodd" d="M138.348 41.4121C137.269 41.6315 136.192 41.8509 135.115 42.0683C136.193 41.8509 137.271 41.6315 138.348 41.4121Z" fill="black"/>
<path fill-rule="evenodd" clip-rule="evenodd" d="M435.451 304.801C435.421 305.449 435.392 306.097 435.363 306.742C435.394 306.093 435.422 305.447 435.451 304.801Z" fill="black"/>
<path fill-rule="evenodd" clip-rule="evenodd" d="M79.1758 252.383C79.1887 252.815 79.201 253.248 79.2126 253.677C79.1991 253.244 79.1881 252.813 79.1758 252.383Z" fill="black"/>
<path fill-rule="evenodd" clip-rule="evenodd" d="M622.564 250.062L619.332 250.079C620.407 249.275 621.485 249.377 622.564 250.062Z" fill="black"/>
<path fill-rule="evenodd" clip-rule="evenodd" d="M401.467 245.478C400.604 245.336 399.742 245.193 398.881 245.051C399.742 245.193 400.605 245.336 401.467 245.478Z" fill="black"/>
<path fill-rule="evenodd" clip-rule="evenodd" d="M164.854 396.039C163.776 395.829 162.699 395.618 161.621 395.408L164.854 396.039Z" fill="black"/>
<path fill-rule="evenodd" clip-rule="evenodd" d="M382.425 210.318C382.405 209.67 382.385 209.023 382.365 208.377C382.385 209.025 382.405 209.672 382.425 210.318Z" fill="black"/>
<path fill-rule="evenodd" clip-rule="evenodd" d="M283.807 22.6195C283.16 22.4234 282.513 22.2273 281.867 22.0312C282.514 22.2273 283.16 22.4234 283.807 22.6195Z" fill="black"/>
<path fill-rule="evenodd" clip-rule="evenodd" d="M360.738 459.104C361.171 459.13 361.604 459.157 362.031 459.182C361.597 459.156 361.167 459.129 360.738 459.104Z" fill="black"/>
<path fill-rule="evenodd" clip-rule="evenodd" d="M64.002 111.605C64.651 111.622 65.3 111.64 65.9414 111.657C65.2891 111.64 64.6455 111.622 64.002 111.605Z" fill="black"/>
<path fill-rule="evenodd" clip-rule="evenodd" d="M497.793 52.2083C496.715 52.1325 495.638 52.0568 494.561 51.9805C495.639 52.0568 496.715 52.1325 497.793 52.2083Z" fill="black"/>
<path fill-rule="evenodd" clip-rule="evenodd" d="M157.096 49.1777C155.584 49.1803 154.073 49.1829 152.57 49.1855C154.085 49.1829 155.591 49.1803 157.096 49.1777Z" fill="black"/>
<path fill-rule="evenodd" clip-rule="evenodd" d="M462.529 182.492C462.549 183.572 462.57 184.652 462.591 185.728C462.572 184.647 462.553 183.569 462.529 182.492Z" fill="black"/>
<path fill-rule="evenodd" clip-rule="evenodd" d="M383.365 414.188C382.5 414.175 381.637 414.161 380.779 414.146C381.646 414.158 382.505 414.174 383.365 414.188Z" fill="black"/>
<path fill-rule="evenodd" clip-rule="evenodd" d="M475.166 71.3099C476.459 71.1662 477.751 71.0226 479.045 70.8789C477.804 71.9777 476.463 71.2465 475.166 71.3099Z" fill="black"/>
<path fill-rule="evenodd" clip-rule="evenodd" d="M376.254 414.527C375.605 414.502 374.957 414.478 374.314 414.455C374.965 414.48 375.61 414.503 376.254 414.527Z" fill="black"/>
<path fill-rule="evenodd" clip-rule="evenodd" d="M353.9 425.814C353.933 426.895 353.966 427.974 353.999 429.05C353.967 427.968 353.933 426.891 353.9 425.814Z" fill="black"/>
<path fill-rule="evenodd" clip-rule="evenodd" d="M452.539 111.047C453.401 110.966 454.264 110.886 455.125 110.807C454.338 111.414 453.414 111.058 452.539 111.047Z" fill="black"/>
<path fill-rule="evenodd" clip-rule="evenodd" d="M170.025 283.207C170.887 283.366 171.75 283.524 172.611 283.682C171.749 283.524 170.887 283.366 170.025 283.207Z" fill="black"/>
<path fill-rule="evenodd" clip-rule="evenodd" d="M304.494 112.928C305.57 112.01 306.648 112.11 307.727 112.918C306.649 112.92 305.572 112.924 304.494 112.928Z" fill="black"/>
<path fill-rule="evenodd" clip-rule="evenodd" d="M264.041 145.605C264.072 145.173 264.102 144.742 264.135 144.311C264.106 144.743 264.073 145.174 264.041 145.605Z" fill="black"/>
<path fill-rule="evenodd" clip-rule="evenodd" d="M452.203 133.311C452.212 134.175 452.221 135.039 452.23 135.899C452.222 135.033 452.213 134.172 452.203 133.311Z" fill="black"/>
<path fill-rule="evenodd" clip-rule="evenodd" d="M166.977 268.581C168.395 269.062 171.248 270.516 172.901 270.324C174.224 270.169 175.315 268.559 176.591 268.561C180.027 268.565 179.39 272.541 177.73 274.675C173.24 280.449 163.207 274.189 166.977 268.581Z" fill="black"/>
<path fill-rule="evenodd" clip-rule="evenodd" d="M181.001 247.854C185.687 249.064 183.353 259.382 179.414 260.091C174.776 260.927 173.967 252.538 174.884 249.505C177.271 250.925 175.793 255.989 178.801 254.59C180.714 253.698 180.423 249.579 181.001 247.854Z" fill="black"/>
</svg>
