<svg width="72" height="72" viewBox="0 0 72 72" fill="none" xmlns="http://www.w3.org/2000/svg">
<circle cx="36" cy="36" r="36" fill="black"/>
<g clip-path="url(#clip0_78_589)">
<path d="M51.4229 29.4742C51.3496 27.7909 51.0807 26.6336 50.6955 25.6309C50.2982 24.5665 49.6869 23.6135 48.8859 22.8213C48.1034 22.0168 47.1558 21.3916 46.1166 20.9956C45.1203 20.6057 43.9832 20.3335 42.3204 20.2593C40.6452 20.1788 40.1134 20.1602 35.8647 20.1602C31.616 20.1602 31.0842 20.1788 29.4153 20.253C27.7525 20.3272 26.6094 20.5997 25.6191 20.9893C24.5674 21.3916 23.6261 22.0105 22.8435 22.8213C22.0488 23.6135 21.4315 24.5728 21.0401 25.6248C20.6549 26.6336 20.3861 27.7846 20.3128 29.4679C20.2332 31.1637 20.2148 31.7021 20.2148 36.0033C20.2148 40.3044 20.2332 40.8428 20.3065 42.5323C20.3799 44.2156 20.649 45.3729 21.0342 46.3756C21.4315 47.44 22.0488 48.393 22.8435 49.1852C23.6261 49.9897 24.5736 50.6149 25.6129 51.0109C26.6094 51.4008 27.7463 51.673 29.4093 51.7472C31.078 51.8217 31.6101 51.8401 35.8588 51.8401C40.1075 51.8401 40.6393 51.8217 42.3082 51.7472C43.971 51.673 45.1141 51.4008 46.1044 51.0109C48.2075 50.1877 49.8703 48.5044 50.6834 46.3756C51.0683 45.3668 51.3374 44.2156 51.4107 42.5323C51.4841 40.8428 51.5024 40.3044 51.5024 36.0033C51.5024 31.7021 51.4962 31.1637 51.4229 29.4742ZM48.6049 42.4086C48.5375 43.9557 48.2808 44.7912 48.0668 45.3482C47.541 46.7283 46.459 47.8237 45.0957 48.356C44.5455 48.5726 43.7143 48.8325 42.1919 48.9004C40.5414 48.9749 40.0463 48.9933 35.8709 48.9933C31.6956 48.9933 31.1943 48.9749 29.5497 48.9004C28.0214 48.8325 27.1961 48.5726 26.6459 48.356C25.9675 48.1022 25.35 47.6999 24.8487 47.1739C24.3291 46.6602 23.9317 46.0413 23.681 45.3545C23.467 44.7975 23.2103 43.9557 23.1432 42.4149C23.0697 40.7439 23.0515 40.2425 23.0515 36.0156C23.0515 31.7886 23.0697 31.2812 23.1432 29.6166C23.2103 28.0694 23.467 27.2339 23.681 26.6769C23.9317 25.9899 24.3291 25.365 24.8549 24.8573C25.3621 24.3312 25.9735 23.929 26.6521 23.6754C27.2023 23.4588 28.0338 23.1989 29.5559 23.1307C31.2065 23.0565 31.7018 23.0379 35.8769 23.0379C40.0585 23.0379 40.5535 23.0565 42.1981 23.1307C43.7264 23.1989 44.5517 23.4588 45.1019 23.6754C45.7804 23.929 46.3979 24.3312 46.8991 24.8573C47.4188 25.371 47.8161 25.9899 48.0668 26.6769C48.2808 27.2339 48.5375 28.0754 48.6049 29.6166C48.6782 31.2875 48.6966 31.7886 48.6966 36.0156C48.6966 40.2425 48.6782 40.7376 48.6049 42.4086Z" fill="white"/>
<path d="M51.4229 29.4742C51.3496 27.7909 51.0807 26.6336 50.6955 25.6309C50.2982 24.5665 49.6869 23.6135 48.8859 22.8213C48.1034 22.0168 47.1558 21.3916 46.1166 20.9956C45.1203 20.6057 43.9832 20.3335 42.3204 20.2593C40.6452 20.1788 40.1134 20.1602 35.8647 20.1602C31.616 20.1602 31.0842 20.1788 29.4153 20.253C27.7525 20.3272 26.6094 20.5997 25.6191 20.9893C24.5674 21.3916 23.6261 22.0105 22.8435 22.8213C22.0488 23.6135 21.4315 24.5728 21.0401 25.6248C20.6549 26.6336 20.3861 27.7846 20.3128 29.4679C20.2332 31.1637 20.2148 31.7021 20.2148 36.0033C20.2148 40.3044 20.2332 40.8428 20.3065 42.5323C20.3799 44.2156 20.649 45.3729 21.0342 46.3756C21.4315 47.44 22.0488 48.393 22.8435 49.1852C23.6261 49.9897 24.5736 50.6149 25.6129 51.0109C26.6094 51.4008 27.7463 51.673 29.4093 51.7472C31.078 51.8217 31.6101 51.8401 35.8588 51.8401C40.1075 51.8401 40.6393 51.8217 42.3082 51.7472C43.971 51.673 45.1141 51.4008 46.1044 51.0109C48.2075 50.1877 49.8703 48.5044 50.6834 46.3756C51.0683 45.3668 51.3374 44.2156 51.4107 42.5323C51.4841 40.8428 51.5024 40.3044 51.5024 36.0033C51.5024 31.7021 51.4962 31.1637 51.4229 29.4742ZM48.6049 42.4086C48.5375 43.9557 48.2808 44.7912 48.0668 45.3482C47.541 46.7283 46.459 47.8237 45.0957 48.356C44.5455 48.5726 43.7143 48.8325 42.1919 48.9004C40.5414 48.9749 40.0463 48.9933 35.8709 48.9933C31.6956 48.9933 31.1943 48.9749 29.5497 48.9004C28.0214 48.8325 27.1961 48.5726 26.6459 48.356C25.9675 48.1022 25.35 47.6999 24.8487 47.1739C24.3291 46.6602 23.9317 46.0413 23.681 45.3545C23.467 44.7975 23.2103 43.9557 23.1432 42.4149C23.0697 40.7439 23.0515 40.2425 23.0515 36.0156C23.0515 31.7886 23.0697 31.2812 23.1432 29.6166C23.2103 28.0694 23.467 27.2339 23.681 26.6769C23.9317 25.9899 24.3291 25.365 24.8549 24.8573C25.3621 24.3312 25.9735 23.929 26.6521 23.6754C27.2023 23.4588 28.0338 23.1989 29.5559 23.1307C31.2065 23.0565 31.7018 23.0379 35.8769 23.0379C40.0585 23.0379 40.5535 23.0565 42.1981 23.1307C43.7264 23.1989 44.5517 23.4588 45.1019 23.6754C45.7804 23.929 46.3979 24.3312 46.8991 24.8573C47.4188 25.371 47.8161 25.9899 48.0668 26.6769C48.2808 27.2339 48.5375 28.0754 48.6049 29.6166C48.6782 31.2875 48.6966 31.7886 48.6966 36.0156C48.6966 40.2425 48.6782 40.7376 48.6049 42.4086Z" fill="white"/>
<path d="M35.8651 27.8652C31.427 27.8652 27.8262 31.5103 27.8262 36.0034C27.8262 40.4965 31.427 44.1415 35.8651 44.1415C40.3034 44.1415 43.904 40.4965 43.904 36.0034C43.904 31.5103 40.3034 27.8652 35.8651 27.8652ZM35.8651 41.2824C32.9859 41.2824 30.6504 38.9184 30.6504 36.0034C30.6504 33.0884 32.9859 30.7244 35.8651 30.7244C38.7445 30.7244 41.0797 33.0884 41.0797 36.0034C41.0797 38.9184 38.7445 41.2824 35.8651 41.2824Z" fill="white"/>
<path d="M35.8651 27.8652C31.427 27.8652 27.8262 31.5103 27.8262 36.0034C27.8262 40.4965 31.427 44.1415 35.8651 44.1415C40.3034 44.1415 43.904 40.4965 43.904 36.0034C43.904 31.5103 40.3034 27.8652 35.8651 27.8652ZM35.8651 41.2824C32.9859 41.2824 30.6504 38.9184 30.6504 36.0034C30.6504 33.0884 32.9859 30.7244 35.8651 30.7244C38.7445 30.7244 41.0797 33.0884 41.0797 36.0034C41.0797 38.9184 38.7445 41.2824 35.8651 41.2824Z" fill="white"/>
<path d="M46.0994 27.5444C46.0994 28.5936 45.259 29.4443 44.2224 29.4443C43.186 29.4443 42.3457 28.5936 42.3457 27.5444C42.3457 26.495 43.186 25.6445 44.2224 25.6445C45.259 25.6445 46.0994 26.495 46.0994 27.5444Z" fill="white"/>
<path d="M46.0994 27.5444C46.0994 28.5936 45.259 29.4443 44.2224 29.4443C43.186 29.4443 42.3457 28.5936 42.3457 27.5444C42.3457 26.495 43.186 25.6445 44.2224 25.6445C45.259 25.6445 46.0994 26.495 46.0994 27.5444Z" fill="white"/>
</g>
<defs>
<clipPath id="clip0_78_589">
<rect width="31.2937" height="31.68" fill="white" transform="translate(20.1602 20.1602)"/>
</clipPath>
</defs>
</svg>
